<svg width="215" height="181" viewBox="0 0 215 181" fill="none" xmlns="http://www.w3.org/2000/svg">
<path d="M2.41764 32.7354L1 169.384H71.173L94.4965 171.998C94.4965 171.998 103.053 181.332 108.386 179.838C113.719 178.345 118.309 171.998 118.309 171.998C118.309 171.998 136.65 170.038 142.409 169.384C148.168 168.731 173.952 169.384 173.952 169.384L203.722 171.998C203.722 171.998 214 171.624 214 171.998C214 172.371 214 32.7354 214 32.7354H203.722L199.469 29.3752C199.469 29.3752 196.634 29.7485 195.925 29.3752C195.216 29.0018 195.925 1 195.925 1C195.925 1 181.926 8.46715 176.787 8.46715C171.648 8.46715 154.459 13.5075 147.017 12.2007C139.574 10.894 123.271 20.7879 123.271 20.7879L108.386 37.2157C108.386 37.2157 93.7666 26.9483 87.4759 26.0149C81.1851 25.0815 69.0466 23.7748 69.0466 23.7748H56.2878L42.8203 20.7879L30.416 23.7748V27.5084H14.822L10.569 31.2419L2.41764 32.7354Z" stroke="black" stroke-linecap="round"/>
<path d="M30.416 27.5084V114.501L42.4659 103.3L55.2246 114.501V24.1481" stroke="black" stroke-linecap="round"/>
<path d="M195.925 28.2551V88.3656C195.925 88.3656 198.849 127.475 194.153 133.168C189.457 138.862 171.117 143.996 171.117 143.996L141.346 147.729C141.346 147.729 111.576 159.023 121.854 158.557C132.131 158.09 150.206 152.303 162.965 156.69C175.724 161.077 200.887 158.557 200.887 158.557V31.2419" stroke="black" stroke-linecap="round"/>
<path d="M11.9867 30.1218L4.54407 34.9755V166.024H72.9451L96.9774 169.757C96.9774 169.757 103.806 165.464 107.5 166.024C111.194 166.584 116.892 169.757 116.892 169.757C116.892 169.757 137.891 164.717 144.89 166.024C151.89 167.331 166.332 165.651 175.369 166.024C184.407 166.397 209.393 169.757 209.393 169.757V38.3357L201.045 30.1218" stroke="black" stroke-linecap="round"/>
<path d="M107.5 36.8423L106.968 165.651C106.968 165.651 87.3873 155.197 80.3877 155.197C73.3881 155.197 52.7438 155.197 52.7438 155.197L21.9102 157.063H13.7588L15.1764 28.089" stroke="black" stroke-linecap="round"/>
<path d="M119.538 39.4558C119.538 39.4558 119.538 80.1517 119.538 79.0317C119.538 77.9116 135.097 66.8042 140.283 65.2174C145.469 63.6307 171.117 61.8572 171.471 61.4839C171.825 61.1105 183.875 59.2437 183.875 58.1236C183.875 57.0036 183.875 17.0543 183.875 17.0543C183.875 17.0543 165.446 22.6547 164.028 21.908C162.611 21.1613 140.283 23.982 140.283 23.982C140.283 23.982 128.587 29.209 127.879 29.9557C127.17 30.7024 119.538 39.4558 119.538 39.4558Z" stroke="black" stroke-linecap="round"/>
<path d="M128.942 85.0054C128.942 85.0054 136.03 78.2849 147.017 76.0448C158.003 73.8046 172.889 76.0448 172.889 76.0448V82.0185" stroke="black" stroke-linecap="round"/>
<path d="M128.942 96.8698C128.942 96.8698 137.408 88.0961 148.434 85.1715C159.46 82.247 166.49 87.0383 173.046 85.1715C179.603 83.3048 174.257 85.1715 174.661 85.1715" stroke="black" stroke-linecap="round"/>
<path d="M21.9265 134C21.9265 134 22.4671 134.13 23.5477 134.389C24.6283 134.647 25.6107 134.932 26.4948 135.242C27.3789 135.553 28.5578 135.837 30.0313 136.096C31.5049 136.354 32.7328 136.51 33.7152 136.561C34.6976 136.613 35.4589 136.639 35.9992 136.639C36.5395 136.639 37.1044 136.639 37.6938 136.639C38.2832 136.639 38.7744 136.639 39.1673 136.639C39.5603 136.639 40.0515 136.561 40.6409 136.406C41.2303 136.251 42.2618 136.018 43.7353 135.708C45.2089 135.397 46.4123 135.165 47.3455 135.009C48.2788 134.854 49.0646 134.699 49.7032 134.544C50.3417 134.389 50.8575 134.259 51.2504 134.156C51.6434 134.052 52.11 133.975 52.6503 133.923C53.1906 133.871 53.8537 133.742 54.6396 133.535C55.4255 133.328 56.0149 133.199 56.4078 133.147C56.8008 133.095 57.292 133.018 57.8814 132.914C58.4708 132.811 59.0111 132.733 59.5023 132.681C59.9935 132.63 60.7057 132.552 61.6389 132.449C62.5722 132.345 63.1616 132.268 63.4072 132.216C63.6528 132.164 64.1931 132.087 65.0281 131.983C65.8631 131.88 66.5262 131.776 67.0174 131.673C67.5086 131.569 68.2699 131.44 69.3014 131.285C70.3329 131.13 71.1433 131 71.7327 130.897C72.3221 130.793 72.887 130.716 73.4273 130.664C73.9676 130.612 74.4588 130.586 74.9009 130.586C75.3429 130.586 75.8095 130.561 76.3007 130.509C76.7919 130.457 77.2585 130.431 77.7006 130.431C78.1427 130.431 78.7075 130.431 79.3952 130.431C80.0828 130.431 80.8687 130.457 81.7529 130.509C82.637 130.561 83.472 130.664 84.2579 130.819C85.0438 130.974 85.7069 131.13 86.2472 131.285C86.7875 131.44 87.2786 131.621 87.7207 131.828C88.1628 132.035 88.7522 132.294 89.489 132.604C90.2257 132.914 90.8889 133.173 91.4783 133.38C92.0677 133.587 92.7062 133.794 93.3939 134.001C94.0815 134.208 94.7446 134.44 95.3832 134.699C96.0217 134.958 96.4883 135.165 96.783 135.32C97.0777 135.475 97.3233 135.578 97.5198 135.63L97.8148 135.708" stroke="black" stroke-miterlimit="10" stroke-linecap="round" stroke-linejoin="round"/>
<path d="M22.958 126.085C22.958 126.085 23.4004 126.215 24.2845 126.474C25.1686 126.732 26.1755 126.991 27.3052 127.25C28.435 127.508 29.4664 127.715 30.3997 127.87C31.3329 128.026 32.2907 128.129 33.2731 128.181C34.2555 128.233 35.3361 128.284 36.5149 128.336C37.6937 128.388 38.5779 128.414 39.1673 128.414C39.7567 128.414 40.4444 128.414 41.2303 128.414C42.0162 128.414 43.1459 128.414 44.6194 128.414C46.093 128.414 47.2718 128.388 48.1559 128.336C49.0401 128.284 49.8996 128.233 50.7346 128.181C51.5697 128.129 52.5275 127.974 53.6081 127.715C54.6887 127.457 55.8184 127.224 56.9972 127.017C58.1761 126.81 59.5759 126.577 61.1968 126.319C62.8177 126.06 64.2422 125.827 65.4701 125.62C66.6981 125.413 67.7787 125.232 68.7119 125.077C69.6452 124.922 70.4065 124.792 70.9959 124.689C71.5853 124.586 72.2239 124.482 72.9116 124.379C73.5992 124.275 74.2377 124.198 74.8272 124.146C75.4166 124.094 75.9569 124.068 76.4481 124.068C76.9392 124.068 77.5532 124.068 78.29 124.068C79.0268 124.068 79.6899 124.068 80.2793 124.068C80.8687 124.068 81.63 124.068 82.5633 124.068C83.4965 124.068 84.2824 124.12 84.921 124.223C85.5595 124.327 86.2963 124.456 87.1313 124.611C87.9663 124.767 88.5803 124.922 88.9732 125.077C89.3661 125.232 89.8328 125.387 90.3731 125.543C90.9134 125.698 91.5028 125.853 92.1413 126.008C92.7799 126.163 93.2956 126.319 93.6886 126.474C94.0815 126.629 94.499 126.81 94.9411 127.017C95.3831 127.224 95.7761 127.405 96.1199 127.56C96.4637 127.715 96.8076 127.87 97.1514 128.026L97.6674 128.259" stroke="black" stroke-miterlimit="10" stroke-linecap="round" stroke-linejoin="round"/>
<path d="M23.5474 119.412C23.5474 119.412 23.8915 119.516 24.5792 119.723C25.2669 119.93 26.3475 120.214 27.821 120.576C29.2946 120.939 30.6699 121.171 31.9469 121.275C33.224 121.378 34.2555 121.456 35.0414 121.508C35.8273 121.559 36.8097 121.611 37.9885 121.663C39.1673 121.715 40.297 121.715 41.3776 121.663C42.4582 121.611 43.3915 121.533 44.1774 121.43C44.9633 121.327 45.7492 121.249 46.5351 121.197C47.3209 121.145 48.0086 121.12 48.598 121.12C49.1874 121.12 49.8014 121.042 50.44 120.887C51.0785 120.732 51.9626 120.654 53.0923 120.654C54.2221 120.654 54.9834 120.654 55.3764 120.654C55.7693 120.654 56.3096 120.654 56.9973 120.654C57.6849 120.654 58.2743 120.654 58.7655 120.654C59.2567 120.654 59.7724 120.628 60.3127 120.576C60.853 120.525 61.6635 120.421 62.7441 120.266C63.8247 120.111 64.7088 120.033 65.3965 120.033C66.0841 120.033 66.6735 119.982 67.1647 119.878C67.6559 119.775 68.3681 119.671 69.3014 119.568C70.2346 119.464 71.0451 119.413 71.7327 119.413C72.4204 119.413 73.3045 119.387 74.3851 119.335C75.4657 119.283 76.3498 119.257 77.0375 119.257C77.7251 119.257 78.3391 119.257 78.8794 119.257C79.4197 119.257 79.8618 119.257 80.2056 119.257C80.5494 119.257 80.8933 119.257 81.2371 119.257C81.5809 119.257 82.0475 119.283 82.637 119.335C83.2264 119.387 83.8895 119.438 84.6263 119.49C85.363 119.542 86.1489 119.671 86.9839 119.878C87.8189 120.085 88.5066 120.292 89.0469 120.499C89.5872 120.706 90.1521 120.939 90.7415 121.197C91.3309 121.456 91.8958 121.689 92.4361 121.896C92.9764 122.103 93.6886 122.361 94.5727 122.672L95.8992 123.137" stroke="black" stroke-miterlimit="10" stroke-linecap="round" stroke-linejoin="round"/>
</svg>
