<svg width="410" height="278" viewBox="0 0 410 278" fill="none" xmlns="http://www.w3.org/2000/svg">
<mask id="path-1-inside-1_182_75" fill="white">
<path d="M0.852417 230.981C4.4506 220.746 8.51492 213.953 18.733 209.457C24.9576 206.719 33.7655 207.808 39.9557 209.925C49.0691 213.043 57.9902 217.152 66.6596 221.322C76.7557 226.178 87.1472 230.102 97.5077 234.323C109.418 239.175 126.241 247.679 139.118 241.509C142.745 239.771 145.832 235.795 149.445 234.59"/>
</mask>
<path d="M0.380718 230.815C0.289132 231.076 0.426073 231.361 0.686585 231.453C0.947097 231.544 1.23253 231.407 1.32412 231.147L0.380718 230.815ZM18.733 209.457L18.9344 209.915L18.9344 209.915L18.733 209.457ZM39.9557 209.925L39.7939 210.398L39.7939 210.398L39.9557 209.925ZM66.6596 221.322L66.4429 221.773L66.4429 221.773L66.6596 221.322ZM97.5077 234.323L97.319 234.786L97.3191 234.786L97.5077 234.323ZM139.118 241.509L139.334 241.96L139.334 241.96L139.118 241.509ZM149.603 235.065C149.865 234.977 150.007 234.694 149.919 234.432C149.832 234.17 149.549 234.029 149.287 234.116L149.603 235.065ZM2.58383 227.774C2.68631 227.517 2.56151 227.226 2.30509 227.124C2.04867 227.021 1.75772 227.146 1.65524 227.403L2.58383 227.774ZM4.83635 220.82C4.69476 221.057 4.77218 221.364 5.00927 221.506C5.24636 221.647 5.55332 221.57 5.69491 221.333L4.83635 220.82ZM10.0498 215.738C10.2472 215.545 10.2507 215.228 10.0575 215.031C9.86441 214.833 9.54785 214.83 9.35047 215.023L10.0498 215.738ZM15.2463 210.638C15.006 210.774 14.9212 211.079 15.0571 211.32C15.193 211.56 15.4981 211.645 15.7385 211.509L15.2463 210.638ZM21.417 209.058C21.6841 208.988 21.8438 208.715 21.7737 208.448C21.7036 208.18 21.4303 208.021 21.1632 208.091L21.417 209.058ZM26.6297 207.341C26.3537 207.349 26.1371 207.58 26.1459 207.856C26.1548 208.132 26.3857 208.349 26.6617 208.34L26.6297 207.341ZM31.9882 208.606C32.2622 208.641 32.5121 208.447 32.5465 208.173C32.5809 207.899 32.3866 207.649 32.1126 207.614L31.9882 208.606ZM37.4921 208.659C37.2251 208.589 36.9515 208.748 36.8809 209.015C36.8104 209.282 36.9696 209.556 37.2366 209.626L37.4921 208.659ZM43.2031 211.613C43.4622 211.708 43.7498 211.576 43.8455 211.317C43.9413 211.058 43.809 210.771 43.55 210.675L43.2031 211.613ZM50.3257 213.344C50.0708 213.238 49.778 213.359 49.6719 213.614C49.5658 213.869 49.6864 214.161 49.9413 214.267L50.3257 213.344ZM56.5884 217.157C56.8401 217.271 57.1362 217.159 57.2498 216.907C57.3633 216.655 57.2514 216.359 56.9997 216.246L56.5884 217.157ZM63.5972 219.305C63.3477 219.186 63.0495 219.293 62.9312 219.542C62.8129 219.792 62.9193 220.09 63.1688 220.208L63.5972 219.305ZM68.9718 222.968C69.2223 223.084 69.5196 222.975 69.6359 222.725C69.7522 222.474 69.6434 222.177 69.393 222.061L68.9718 222.968ZM74.4714 224.346C74.2183 224.235 73.9236 224.351 73.813 224.604C73.7024 224.857 73.8179 225.152 74.0709 225.262L74.4714 224.346ZM79.2115 227.455C79.4663 227.561 79.7591 227.441 79.8655 227.186C79.9719 226.931 79.8515 226.638 79.5967 226.532L79.2115 227.455ZM84.7538 228.65C84.4979 228.546 84.2064 228.67 84.1026 228.926C83.9989 229.181 84.1223 229.473 84.3782 229.577L84.7538 228.65ZM89.557 231.661C89.8134 231.763 90.1044 231.639 90.2071 231.382C90.3098 231.126 90.1853 230.835 89.929 230.732L89.557 231.661ZM95.1087 232.811C94.8527 232.708 94.5613 232.832 94.458 233.088C94.3547 233.344 94.4786 233.636 94.7347 233.739L95.1087 232.811ZM99.8237 235.825C100.078 235.932 100.371 235.812 100.478 235.557C100.585 235.303 100.465 235.01 100.211 234.903L99.8237 235.825ZM105.223 237.006C104.968 236.9 104.675 237.022 104.57 237.277C104.464 237.532 104.586 237.825 104.841 237.93L105.223 237.006ZM109.911 239.943C110.17 240.04 110.458 239.909 110.555 239.651C110.652 239.392 110.522 239.104 110.263 239.007L109.911 239.943ZM115.374 240.778C115.111 240.696 114.83 240.843 114.748 241.106C114.666 241.37 114.812 241.65 115.076 241.733L115.374 240.778ZM120.368 243.156C120.637 243.216 120.904 243.045 120.964 242.776C121.023 242.506 120.853 242.239 120.583 242.18L120.368 243.156ZM125.888 243.028C125.614 243.002 125.37 243.204 125.345 243.479C125.319 243.754 125.521 243.998 125.796 244.023L125.888 243.028ZM131.315 244.072C131.59 244.049 131.794 243.807 131.771 243.532C131.748 243.257 131.506 243.053 131.231 243.076L131.315 244.072ZM136.44 242.044C136.177 242.13 136.034 242.412 136.12 242.675C136.206 242.937 136.488 243.08 136.751 242.994L136.44 242.044ZM142.059 240.26C142.281 240.095 142.327 239.782 142.162 239.56C141.997 239.338 141.684 239.292 141.463 239.457L142.059 240.26ZM146.404 235.611C146.175 235.766 146.116 236.077 146.271 236.305C146.426 236.534 146.737 236.593 146.965 236.438L146.404 235.611ZM1.32412 231.147C1.73565 229.976 2.15268 228.853 2.58383 227.774L1.65524 227.403C1.21784 228.497 0.795881 229.634 0.380718 230.815L1.32412 231.147ZM5.69491 221.333C6.93481 219.257 8.3507 217.4 10.0498 215.738L9.35047 215.023C7.58204 216.753 6.11447 218.68 4.83635 220.82L5.69491 221.333ZM15.7385 211.509C16.7299 210.948 17.7923 210.418 18.9344 209.915L18.5316 209C17.3612 209.515 16.2688 210.06 15.2463 210.638L15.7385 211.509ZM18.9344 209.915C19.7201 209.569 20.5512 209.285 21.417 209.058L21.1632 208.091C20.2518 208.33 19.3704 208.631 18.5316 209L18.9344 209.915ZM26.6617 208.34C28.4226 208.284 30.222 208.385 31.9882 208.606L32.1126 207.614C30.3016 207.387 28.4495 207.282 26.6297 207.341L26.6617 208.34ZM37.2366 209.626C38.1272 209.862 38.9837 210.121 39.7939 210.398L40.1175 209.452C39.2843 209.167 38.405 208.901 37.4921 208.659L37.2366 209.626ZM39.7939 210.398C40.9331 210.788 42.0696 211.193 43.2031 211.613L43.55 210.675C42.4092 210.253 41.265 209.845 40.1175 209.452L39.7939 210.398ZM49.9413 214.267C52.1698 215.195 54.3858 216.163 56.5884 217.157L56.9997 216.246C54.7898 215.248 52.5648 214.276 50.3257 213.344L49.9413 214.267ZM63.1688 220.208C64.2639 220.727 65.3552 221.25 66.4429 221.773L66.8763 220.872C65.7874 220.348 64.6943 219.825 63.5972 219.305L63.1688 220.208ZM66.4429 221.773C67.284 222.177 68.127 222.575 68.9718 222.968L69.393 222.061C68.5521 221.67 67.7131 221.274 66.8763 220.872L66.4429 221.773ZM74.0709 225.262C75.7795 226.009 77.4935 226.738 79.2115 227.455L79.5967 226.532C77.8828 225.817 76.1739 225.09 74.4714 224.346L74.0709 225.262ZM84.3782 229.577C86.1025 230.276 87.8294 230.968 89.557 231.661L89.929 230.732C88.2014 230.04 86.4761 229.348 84.7538 228.65L84.3782 229.577ZM94.7347 233.739C95.5964 234.086 96.4579 234.435 97.319 234.786L97.6963 233.86C96.8339 233.509 95.9712 233.159 95.1087 232.811L94.7347 233.739ZM97.3191 234.786C98.1312 235.117 98.9668 235.465 99.8237 235.825L100.211 234.903C99.3525 234.542 98.5132 234.193 97.6963 233.86L97.3191 234.786ZM104.841 237.93C106.487 238.61 108.183 239.293 109.911 239.943L110.263 239.007C108.549 238.362 106.864 237.684 105.223 237.006L104.841 237.93ZM115.076 241.733C116.827 242.28 118.596 242.766 120.368 243.156L120.583 242.18C118.845 241.796 117.104 241.319 115.374 240.778L115.076 241.733ZM125.796 244.023C127.655 244.195 129.501 244.225 131.315 244.072L131.231 243.076C129.484 243.223 127.698 243.195 125.888 243.028L125.796 244.023ZM136.751 242.994C137.626 242.708 138.488 242.365 139.334 241.96L138.902 241.058C138.097 241.444 137.275 241.771 136.44 242.044L136.751 242.994ZM139.334 241.96C140.284 241.504 141.188 240.907 142.059 240.26L141.463 239.457C140.618 240.085 139.771 240.641 138.902 241.058L139.334 241.96ZM146.965 236.438C147.841 235.844 148.712 235.362 149.603 235.065L149.287 234.116C148.278 234.452 147.322 234.987 146.404 235.611L146.965 236.438ZM-0.0909805 230.649C-0.274154 231.17 -0.00027126 231.741 0.520753 231.924C1.04178 232.107 1.61264 231.834 1.79581 231.313L-0.0909805 230.649ZM18.733 209.457L19.1357 210.373L19.1357 210.373L18.733 209.457ZM39.9557 209.925L39.632 210.871L39.632 210.871L39.9557 209.925ZM66.6596 221.322L66.2261 222.223L66.2261 222.223L66.6596 221.322ZM97.5077 234.323L97.1304 235.249L97.1304 235.249L97.5077 234.323ZM139.118 241.509L139.55 242.411L139.55 242.41L139.118 241.509ZM149.761 235.539C150.285 235.364 150.568 234.798 150.394 234.274C150.219 233.75 149.653 233.467 149.129 233.642L149.761 235.539ZM3.04812 227.959C3.25308 227.446 3.00349 226.865 2.49065 226.66C1.9778 226.455 1.39591 226.704 1.19095 227.217L3.04812 227.959ZM4.40706 220.564C4.1239 221.038 4.27874 221.652 4.75291 221.935C5.22708 222.218 5.84102 222.063 6.12419 221.589L4.40706 220.564ZM10.3995 216.095C10.7943 215.709 10.8012 215.076 10.4149 214.681C10.0287 214.286 9.39555 214.279 9.00079 214.666L10.3995 216.095ZM15.0003 210.203C14.5195 210.475 14.3501 211.085 14.6219 211.566C14.8937 212.046 15.5038 212.216 15.9845 211.944L15.0003 210.203ZM21.544 209.542C22.0782 209.402 22.3976 208.855 22.2573 208.321C22.1171 207.786 21.5704 207.467 21.0362 207.607L21.544 209.542ZM26.6137 206.841C26.0617 206.858 25.6285 207.32 25.6462 207.872C25.6639 208.424 26.1257 208.857 26.6777 208.84L26.6137 206.841ZM31.9259 209.103C32.4739 209.171 32.9739 208.783 33.0426 208.235C33.1113 207.687 32.7228 207.187 32.1748 207.118L31.9259 209.103ZM37.6198 208.176C37.0858 208.035 36.5386 208.353 36.3975 208.887C36.2564 209.421 36.5749 209.969 37.1088 210.11L37.6198 208.176ZM43.0297 212.082C43.5477 212.273 44.1229 212.009 44.3145 211.491C44.506 210.973 44.2414 210.397 43.7234 210.206L43.0297 212.082ZM50.5179 212.883C50.008 212.67 49.4226 212.912 49.2103 213.421C48.998 213.931 49.2393 214.517 49.7491 214.729L50.5179 212.883ZM56.3827 217.613C56.8861 217.84 57.4784 217.616 57.7055 217.113C57.9327 216.609 57.7087 216.017 57.2053 215.79L56.3827 217.613ZM63.8114 218.853C63.3124 218.616 62.716 218.829 62.4794 219.328C62.2428 219.827 62.4556 220.423 62.9546 220.66L63.8114 218.853ZM68.7613 223.421C69.2622 223.654 69.8568 223.436 70.0894 222.935C70.322 222.434 70.1045 221.84 69.6036 221.607L68.7613 223.421ZM74.6716 223.888C74.1655 223.666 73.576 223.897 73.3548 224.404C73.1337 224.91 73.3647 225.499 73.8707 225.72L74.6716 223.888ZM79.0189 227.916C79.5286 228.129 80.1142 227.888 80.3269 227.378C80.5396 226.869 80.2989 226.283 79.7892 226.07L79.0189 227.916ZM84.9416 228.187C84.4298 227.979 83.8467 228.226 83.6392 228.738C83.4318 229.25 83.6785 229.833 84.1904 230.04L84.9416 228.187ZM89.3711 232.125C89.8837 232.33 90.4659 232.081 90.6713 231.568C90.8767 231.056 90.6276 230.474 90.1149 230.268L89.3711 232.125ZM95.2958 232.348C94.7836 232.141 94.2009 232.389 93.9943 232.901C93.7877 233.413 94.0355 233.996 94.5477 234.203L95.2958 232.348ZM99.6301 236.286C100.139 236.5 100.725 236.26 100.939 235.751C101.153 235.242 100.914 234.656 100.404 234.442L99.6301 236.286ZM105.414 236.544C104.904 236.333 104.319 236.576 104.108 237.086C103.897 237.596 104.14 238.181 104.65 238.392L105.414 236.544ZM109.735 240.411C110.252 240.605 110.829 240.344 111.023 239.827C111.218 239.31 110.956 238.733 110.439 238.539L109.735 240.411ZM115.524 240.301C114.996 240.136 114.436 240.43 114.271 240.957C114.106 241.484 114.4 242.045 114.927 242.21L115.524 240.301ZM120.26 243.645C120.799 243.764 121.333 243.423 121.452 242.883C121.571 242.344 121.23 241.81 120.691 241.692L120.26 243.645ZM125.935 242.53C125.385 242.479 124.898 242.883 124.847 243.433C124.796 243.983 125.2 244.47 125.75 244.521L125.935 242.53ZM131.357 244.571C131.907 244.524 132.316 244.041 132.27 243.49C132.223 242.94 131.74 242.531 131.189 242.578L131.357 244.571ZM136.284 241.569C135.76 241.74 135.473 242.305 135.645 242.83C135.816 243.355 136.381 243.641 136.906 243.47L136.284 241.569ZM142.358 240.661C142.801 240.331 142.893 239.705 142.563 239.262C142.234 238.818 141.607 238.726 141.164 239.056L142.358 240.661ZM146.123 235.197C145.666 235.507 145.547 236.129 145.857 236.586C146.168 237.043 146.789 237.162 147.246 236.852L146.123 235.197ZM1.79581 231.313C2.20553 230.147 2.6201 229.03 3.04812 227.959L1.19095 227.217C0.750426 228.319 0.325997 229.463 -0.0909805 230.649L1.79581 231.313ZM6.12419 221.589C7.34498 219.545 8.73502 217.724 10.3995 216.095L9.00079 214.666C7.19771 216.43 5.7043 218.392 4.40706 220.564L6.12419 221.589ZM15.9845 211.944C16.9604 211.392 18.0078 210.869 19.1357 210.373L18.3303 208.542C17.1457 209.063 16.0382 209.616 15.0003 210.203L15.9845 211.944ZM19.1357 210.373C19.895 210.039 20.7009 209.763 21.544 209.542L21.0362 207.607C20.102 207.852 19.1955 208.161 18.3303 208.542L19.1357 210.373ZM26.6777 208.84C28.4091 208.784 30.1821 208.884 31.9259 209.103L32.1748 207.118C30.3415 206.888 28.463 206.782 26.6137 206.841L26.6777 208.84ZM37.1088 210.11C37.9883 210.342 38.8334 210.598 39.632 210.871L40.2794 208.979C39.4345 208.69 38.5439 208.42 37.6198 208.176L37.1088 210.11ZM39.632 210.871C40.7672 211.26 41.8998 211.664 43.0297 212.082L43.7234 210.206C42.579 209.783 41.4309 209.373 40.2794 208.979L39.632 210.871ZM49.7491 214.729C51.9724 215.655 54.1837 216.621 56.3827 217.613L57.2053 215.79C54.9918 214.791 52.7623 213.817 50.5179 212.883L49.7491 214.729ZM62.9546 220.66C64.0486 221.179 65.1391 221.7 66.2261 222.223L67.0931 220.421C66.0035 219.897 64.9096 219.374 63.8114 218.853L62.9546 220.66ZM66.2261 222.223C67.0694 222.629 67.9145 223.028 68.7613 223.421L69.6036 221.607C68.7646 221.218 67.9277 220.822 67.0931 220.421L66.2261 222.223ZM73.8707 225.72C75.5822 226.468 77.2989 227.198 79.0189 227.916L79.7892 226.07C78.0774 225.356 76.3711 224.63 74.6716 223.888L73.8707 225.72ZM84.1904 230.04C85.9156 230.739 87.6434 231.432 89.3711 232.125L90.1149 230.268C88.3874 229.576 86.6629 228.884 84.9416 228.187L84.1904 230.04ZM94.5477 234.203C95.4089 234.55 96.2699 234.899 97.1304 235.249L97.885 233.397C97.0219 233.045 96.1587 232.696 95.2958 232.348L94.5477 234.203ZM97.1304 235.249C97.9401 235.579 98.7739 235.926 99.6301 236.286L100.404 234.442C99.5454 234.081 98.7042 233.731 97.885 233.397L97.1304 235.249ZM104.65 238.392C106.299 239.074 108 239.758 109.735 240.411L110.439 238.539C108.732 237.896 107.052 237.221 105.414 236.544L104.65 238.392ZM114.927 242.21C116.689 242.761 118.472 243.25 120.26 243.645L120.691 241.692C118.969 241.312 117.242 240.838 115.524 240.301L114.927 242.21ZM125.75 244.521C127.634 244.695 129.51 244.726 131.357 244.571L131.189 242.578C129.476 242.722 127.719 242.695 125.935 242.53L125.75 244.521ZM136.906 243.47C137.802 243.177 138.684 242.825 139.55 242.411L138.686 240.607C137.901 240.983 137.1 241.302 136.284 241.569L136.906 243.47ZM139.55 242.41C140.54 241.936 141.473 241.319 142.358 240.661L141.164 239.056C140.332 239.674 139.515 240.21 138.686 240.607L139.55 242.41ZM147.246 236.852C148.1 236.272 148.929 235.816 149.761 235.539L149.129 233.642C148.06 233.998 147.062 234.559 146.123 235.197L147.246 236.852Z" fill="black" mask="url(#path-1-inside-1_182_75)"/>
<path d="M322.611 196.312C334.114 197.75 345.588 201.654 356.214 206.167C360.97 208.187 365.853 210.262 370.414 212.703C375.996 215.69 380.661 220.042 385.641 223.892C394.234 230.535 406.185 239.993 408.363 251.472C409.318 256.509 409.871 263.742 406.036 267.76C403.289 270.637 401.077 274.293 398.371 276.999" stroke="black" stroke-linecap="round" stroke-dasharray="6 6"/>
<path d="M179.099 70.6618C181.232 61.2941 184.494 52.3962 188.064 43.4923C190.646 37.0516 192.887 30.0909 191.896 23.0296C190.596 13.7662 181.689 7.05977 173.624 3.86724C164.321 0.18485 153.264 1.67726 143.374 1.67726" stroke="black" stroke-linecap="round" stroke-dasharray="6 6"/>
<path d="M321.995 124.864C328.403 118.129 335.096 112.244 343.621 108.336C351.515 104.718 360.228 103.539 368.635 101.698C379.65 99.2851 387.922 95.9253 396.249 88.1474C401.577 83.1707 408.409 78.29 409.15 70.5933C409.94 62.3694 403.654 57.2424 396.934 53.2787C393.46 51.2305 392.34 49.253 388.516 48.4882" stroke="black" stroke-linecap="round" stroke-dasharray="6 6"/>
</svg>
