<svg width="102" height="98" viewBox="0 0 102 98" fill="none" xmlns="http://www.w3.org/2000/svg">
<g id="mindmap">
<path id="Vector" d="M39.3566 55.2977H61.6055V58.1538H39.3566V55.2977Z" fill="black"/>
<path id="Vector_2" d="M17.4155 30.8431C21.0322 30.8431 24.0845 33.2018 24.0845 36.4784C24.0845 39.7551 21.0322 42.2197 17.4155 42.2197C13.7988 42.2197 10.3656 39.7551 10.3656 36.4784C10.3656 33.2018 13.7988 30.8431 17.4155 30.8431Z" stroke="black" stroke-width="0.624368" stroke-linecap="round"/>
<path id="Vector_3" d="M83.785 62.8719C87.4017 62.8719 91.2838 65.2836 91.2838 68.5602C91.2838 71.8369 87.4017 74.7439 83.785 74.7439C80.1683 74.7439 76.9011 71.8369 76.9011 68.5602C76.9011 65.2836 80.1683 62.8719 83.785 62.8719Z" stroke="black" stroke-width="0.5432" stroke-linecap="round"/>
<path id="Vector_4" d="M17.2984 62.8719C20.9151 62.8719 23.9674 65.5313 23.9674 68.8079C23.9674 72.0846 20.9151 74.2485 17.2984 74.2485C13.6817 74.2485 9.58472 72.0846 9.58472 68.8079C9.58472 65.5313 13.6817 62.8719 17.2984 62.8719Z" stroke="black" stroke-width="0.5432" stroke-linecap="round"/>
<path id="Vector_5" d="M83.7851 30.8431C87.4018 30.8431 91.1669 33.5025 91.1669 36.7791C91.1669 40.0558 87.4018 42.1137 83.7851 42.1137C80.1684 42.1137 76.1204 40.0558 76.1204 36.7791C76.1204 33.5025 80.1684 30.8431 83.7851 30.8431Z" stroke="black" stroke-width="0.5432" stroke-linecap="round"/>
<path id="Vector_6" d="M1.27197 17.4474V96.513L17.173 81.4369L34.1833 95.1729L50.9668 81.4369L67.4644 95.1729L83.7352 81.4369L100.746 95.1729V14.4322L83.7352 1.03125L67.4644 15.7723L50.9668 1.03125L34.1833 14.4322L17.173 1.03125L1.27197 17.4474Z" stroke="black" stroke-linecap="round"/>
<path id="Vector_7" d="M51.0088 30.9492C63.5912 30.9492 73.803 40.2477 73.803 51.7048C73.803 63.1619 63.5912 72.4604 51.0088 72.4604C38.4263 72.4604 28.2145 63.1619 28.2145 51.7048C28.2145 40.2477 38.4263 30.9492 51.0088 30.9492Z" stroke="black" stroke-width="1.89455" stroke-linecap="round"/>
<path id="Vector_8" d="M50.3151 14.9407C53.9318 14.9407 57.6969 17.9007 57.6969 21.1774C57.6969 24.4541 53.9318 26.2113 50.3151 26.2113C46.6984 26.2113 43.2653 23.8526 43.2653 20.576C43.2653 17.2993 46.6984 14.9407 50.3151 14.9407Z" stroke="black" stroke-width="0.3584" stroke-linecap="round"/>
<path id="Vector_9" d="M71.0858 42.2197L76.7842 39.3298" stroke="black" stroke-linecap="round"/>
<path id="Vector_10" d="M50.4811 30.7372V25.6476" stroke="black" stroke-linecap="round"/>
<path id="Vector_11" d="M70.0901 62.7659L77.2367 66.2568" stroke="black" stroke-width="1.04926" stroke-linecap="round"/>
<path id="Vector_12" d="M22.9581 66.3628L31.5879 61.883" stroke="black" stroke-linecap="round"/>
<path id="Vector_13" d="M30.4263 42.3257L22.8412 39.2238" stroke="black" stroke-linecap="round"/>
<path id="Vector_14" d="M39.3566 45.725H61.6055V48.5811H39.3566V45.725Z" fill="black"/>
<path id="Vector_15" d="M34.5415 14.5326C34.5415 14.5326 34.5832 17.9138 34.6662 24.6761L34.7908 34.8197" stroke="black" stroke-miterlimit="10" stroke-linecap="round" stroke-linejoin="round"/>
<path id="Vector_16" d="M33.546 69.3077C33.546 69.3077 33.5462 73.4779 33.5462 81.8181L33.5465 94.3285" stroke="black" stroke-miterlimit="10" stroke-linecap="round" stroke-linejoin="round"/>
<path id="Vector_17" d="M67.5125 94.8459C67.5125 94.8459 67.4861 90.4679 67.4327 81.7118L67.3528 68.5777" stroke="black" stroke-miterlimit="10" stroke-linecap="round" stroke-linejoin="round"/>
<path id="Vector_18" d="M67.1921 16.0433C67.1921 16.0433 67.1389 19.0426 67.0321 25.0412L66.8721 34.0392" stroke="black" stroke-miterlimit="10" stroke-linecap="round" stroke-linejoin="round"/>
<path id="Vector_19" d="M83.6958 1.38531C83.6958 1.38531 83.6693 5.6666 83.6159 14.2292L83.536 27.0731" stroke="black" stroke-miterlimit="10" stroke-linecap="round" stroke-linejoin="round"/>
<path id="Vector_20" d="M83.8561 76.403C83.8561 76.403 83.8563 77.2737 83.8563 79.0153L83.8566 81.6276" stroke="black" stroke-miterlimit="10" stroke-linecap="round" stroke-linejoin="round"/>
<path id="Vector_21" d="M83.8561 43.2496C83.8561 43.2496 83.8296 46.0796 83.7762 51.7396L83.6963 60.2296" stroke="black" stroke-miterlimit="10" stroke-linecap="round" stroke-linejoin="round"/>
<path id="Vector_22" d="M16.9391 1.16235C16.9391 1.16235 16.9393 5.7339 16.9393 14.877L16.9396 28.5916" stroke="black" stroke-miterlimit="10" stroke-linecap="round" stroke-linejoin="round"/>
<path id="Vector_23" d="M16.9391 43.8301C16.9391 43.8301 16.9927 46.6117 17.0996 52.175L17.26 60.5198" stroke="black" stroke-miterlimit="10" stroke-linecap="round" stroke-linejoin="round"/>
<path id="Vector_24" d="M17.0992 75.3229C17.0992 75.3229 17.0995 76.4114 17.0995 78.5883L17.0997 81.8537" stroke="black" stroke-miterlimit="10" stroke-linecap="round" stroke-linejoin="round"/>
</g>
</svg>
