<svg width="76" height="64" viewBox="0 0 76 64" fill="none" xmlns="http://www.w3.org/2000/svg">
<g id="pomodoro" clip-path="url(#clip0_44_76)">
<path id="Vector" d="M28.9553 2.71551L34.7463 0.772064H38.1171H43.5938L48.5805 2.71551C48.5805 2.71551 55.3367 2.71551 55.9802 3.36332C56.6236 4.01113 62.2538 5.30676 62.2538 5.46872C62.2538 5.63067 68.6883 10.0034 68.6883 10.0034C68.6883 10.0034 72.2273 15.1859 72.7099 15.3479C73.1925 15.5099 75.2837 20.8543 74.8011 21.6641C74.3185 22.4739 76.4097 27.6564 75.9272 28.4661C75.4446 29.2759 76.2489 35.1063 74.8011 37.3736C73.3534 39.641 74.4794 41.5844 71.9056 46.2811C69.3318 50.9777 68.0449 52.5973 68.0449 52.5973C68.0449 52.5973 64.4657 57.0105 63.0581 57.6178C61.6506 58.2252 58.5942 61.1403 57.1062 61.0189C55.6182 60.8974 52.7707 62.9623 49.8242 62.9623C46.8776 62.9623 43.5938 63.7721 43.5938 63.7721H33.942C33.942 63.7721 27.6684 63.6506 25.5772 62.9623C23.4859 62.274 17.8557 60.371 17.8557 60.371L10.7778 55.8363L6.27364 50.3299C6.27364 50.3299 3.8607 45.8357 3.05639 44.3376C2.25207 42.8396 1.12604 37.3736 1.12604 37.3736L0 30.5716C0 30.5716 0 26.8061 0 25.551C0 24.2959 1.12604 20.2065 1.12604 20.2065L3.05639 15.3479L6.27364 11.1371C6.27364 11.1371 9.4909 7.73607 9.81262 7.57412C10.1343 7.41217 14.4776 4.8209 14.4776 4.8209L20.4296 2.71551C20.4296 2.71551 22.3599 2.3916 25.5772 2.06769C28.7944 1.74379 28.9553 2.71551 28.9553 2.71551Z" stroke="black" stroke-linecap="round"/>
<path id="Vector_2" d="M24.8444 16.7107L29.5094 12.8238C29.5094 12.8238 33.531 10.5565 34.9788 10.5565C36.4265 10.5565 38.3167 10.0706 40.2872 10.5565C42.2578 11.0423 45.7566 13.4716 45.7566 13.4716L50.0999 16.7107L48.1695 11.8521L46.5609 10.5565C46.5609 10.5565 49.8988 8.77499 51.2259 9.26085C52.553 9.74671 54.966 8.61303 56.2126 9.26085C57.4593 9.90866 62.0037 10.5565 62.0037 10.5565L55.0866 6.99349L51.2259 6.02177H46.5609C46.5609 6.02177 50.9042 3.91637 51.2259 4.07833C51.5476 4.24028 55.0866 2.7827 55.0866 2.7827H47.3652L43.1828 4.07833C43.1828 4.07833 39.3221 6.18372 38.6786 5.212C38.0352 4.24028 38.6786 2.7827 38.6786 2.7827H36.1048L34.9788 5.212L32.2441 4.07833L27.9008 2.7827H24.8444C24.8444 2.7827 18.8925 3.43051 20.5011 4.07833C22.1098 4.72614 25.6487 4.07833 25.6487 4.07833L28.5443 6.02177H21.9489L16.9622 7.96521C16.9622 7.96521 10.2059 11.0423 13.1015 10.5565C15.997 10.0706 20.5011 9.26084 20.5011 9.26084H27.2574H28.5443L25.6487 13.4716L24.0401 16.7107L24.8444 16.7107Z" stroke="black" stroke-linecap="round"/>
<path id="Vector_3" d="M0.64344 21.5021C0.64344 21.5021 3.33789 23.4456 6.59536 24.9032C9.85282 26.3607 13.6733 27.3325 13.6733 27.3325L23.2025 29.212C23.2025 29.212 26.0597 31.0615 29.277 30.2922" stroke="black" stroke-linecap="round"/>
<path id="Vector_4" d="M28.9557 30.5202H38.2999H48.5647L55.5709 29.5435L63.0088 28.0671C63.0088 28.0671 66.0658 27.5856 69.0943 25.8776C72.1228 24.1695 75.1228 21.2349 75.1228 21.2349" stroke="black" stroke-width="1.01287" stroke-linecap="round"/>
<path id="Vector_5" d="M4.69136 26.7596C4.69136 26.7596 4.69136 26.9101 4.69136 27.21C4.69136 27.5099 4.69136 27.6973 4.69136 27.7723C4.69136 27.8473 4.69136 27.9972 4.69136 28.2221C4.69136 28.447 4.69136 28.597 4.69136 28.6719C4.69136 28.7469 4.69136 28.8219 4.69136 28.8968C4.69136 28.9718 4.69136 29.0468 4.69136 29.1218C4.69136 29.1967 4.69136 29.2529 4.69136 29.2904C4.69136 29.3279 4.69136 29.3654 4.69136 29.4029C4.69136 29.4404 4.69136 29.4966 4.69136 29.5716C4.69136 29.6465 4.69136 29.7215 4.69136 29.7965V29.9096" stroke="black" stroke-width="2" stroke-miterlimit="10" stroke-linecap="round" stroke-linejoin="round"/>
<path id="Vector_6" d="M7.32018 27.8031C7.32018 27.8031 7.32018 27.867 7.32018 27.9937C7.32018 28.1205 7.32018 28.2472 7.32018 28.3739C7.32018 28.5007 7.32018 28.5957 7.32018 28.6591C7.32018 28.7224 7.32018 28.77 7.32018 28.8016C7.32018 28.8333 7.32018 28.8809 7.32018 28.9442C7.32018 29.0076 7.32018 29.0709 7.32018 29.1343C7.32018 29.1977 7.32018 29.2452 7.32018 29.2769C7.32018 29.3086 7.32018 29.3402 7.32018 29.3719C7.32018 29.4036 7.32018 29.4511 7.32018 29.5145C7.32018 29.5779 7.32018 29.6254 7.32018 29.6571C7.32018 29.6887 7.32018 29.7204 7.32018 29.7521C7.32018 29.7838 7.32018 29.8155 7.32018 29.8472C7.32018 29.8788 7.32018 29.9105 7.32018 29.9422C7.32018 29.9739 7.32018 30.0056 7.32018 30.0372C7.32018 30.0689 7.32018 30.1006 7.32018 30.1323C7.32018 30.164 7.32018 30.1957 7.32018 30.2274C7.32018 30.259 7.32018 30.3066 7.32018 30.3699V30.4655" stroke="black" stroke-miterlimit="10" stroke-linecap="round" stroke-linejoin="round"/>
<path id="Vector_7" d="M13.4582 30.0842C13.4582 30.0842 13.4582 30.164 13.4582 30.3224C13.4582 30.4808 13.4582 30.6075 13.4582 30.7026C13.4582 30.7976 13.4582 30.9085 13.4582 31.0352C13.4582 31.162 13.4582 31.2887 13.4582 31.4154C13.4582 31.5422 13.4582 31.6372 13.4582 31.7006C13.4582 31.7639 13.4582 31.8431 13.4582 31.9382C13.4582 32.0332 13.4582 32.1441 13.4582 32.2709V32.4615" stroke="black" stroke-miterlimit="10" stroke-linecap="round" stroke-linejoin="round"/>
<path id="Vector_8" d="M16.3856 30.5595C16.3856 30.5595 16.3856 30.5758 16.3856 30.6075C16.3856 30.6392 16.3856 30.7342 16.3856 30.8927C16.3856 31.0511 16.3856 31.1461 16.3856 31.1778C16.3856 31.2095 16.3856 31.2887 16.3856 31.4154C16.3856 31.5421 16.3856 31.653 16.3856 31.7481C16.3856 31.8431 16.3856 31.9065 16.3856 31.9382C16.3856 31.9699 16.3856 32.0332 16.3856 32.1283C16.3856 32.2233 16.3856 32.2867 16.3856 32.3184C16.3856 32.35 16.3856 32.3976 16.3856 32.4609C16.3856 32.5243 16.3856 32.6035 16.3856 32.6985V32.8417" stroke="black" stroke-miterlimit="10" stroke-linecap="round" stroke-linejoin="round"/>
<path id="Vector_9" d="M19.8795 31.3198C19.8795 31.3198 19.8732 31.4388 19.8607 31.6755C19.8481 31.9122 19.8376 32.1095 19.8293 32.2673C19.8209 32.4251 19.8125 32.5829 19.8042 32.7407C19.7958 32.8985 19.7895 33.0168 19.7853 33.0957C19.7811 33.1746 19.7759 33.2733 19.7696 33.3916C19.7634 33.51 19.7592 33.5889 19.7571 33.6283C19.755 33.6678 19.7529 33.7072 19.7508 33.7467C19.7487 33.7861 19.7466 33.8256 19.7445 33.865C19.7424 33.9045 19.7393 33.9636 19.7351 34.0425C19.7309 34.1214 19.7278 34.1806 19.7257 34.22C19.7236 34.2595 19.7215 34.2989 19.7194 34.3384C19.7173 34.3778 19.7142 34.437 19.71 34.5159L19.7037 34.6349" stroke="black" stroke-width="2" stroke-miterlimit="10" stroke-linecap="round" stroke-linejoin="round"/>
<path id="Vector_10" d="M23.4679 31.605C23.4679 31.605 23.4679 31.653 23.4679 31.7481C23.4679 31.8431 23.4679 31.9223 23.4679 31.9857C23.4679 32.0491 23.4679 32.1441 23.4679 32.2708C23.4679 32.3976 23.4679 32.5085 23.4679 32.6035C23.4679 32.6986 23.4679 32.8253 23.4679 32.9837C23.4679 33.1421 23.4679 33.2372 23.4679 33.2688C23.4679 33.3005 23.4679 33.348 23.4679 33.4114C23.4679 33.4748 23.4679 33.5223 23.4679 33.554C23.4679 33.5857 23.4679 33.6173 23.4679 33.649C23.4679 33.6807 23.4679 33.7282 23.4679 33.7916V33.8872" stroke="black" stroke-miterlimit="10" stroke-linecap="round" stroke-linejoin="round"/>
<path id="Vector_11" d="M27.1507 31.9852C27.1507 31.9852 27.1507 32.0491 27.1507 32.1758C27.1507 32.3025 27.1507 32.4134 27.1507 32.5085C27.1507 32.6035 27.1507 32.6669 27.1507 32.6986C27.1507 32.7303 27.1507 32.7778 27.1507 32.8411C27.1507 32.9045 27.1507 32.9679 27.1507 33.0312C27.1507 33.0946 27.1507 33.1421 27.1507 33.1738C27.1507 33.2055 27.1507 33.2372 27.1507 33.2688C27.1507 33.3005 27.1507 33.3322 27.1507 33.3639C27.1507 33.3956 27.1507 33.4273 27.1507 33.4589C27.1507 33.4906 27.1507 33.5382 27.1507 33.6015C27.1507 33.6649 27.1507 33.7124 27.1507 33.7441C27.1507 33.7758 27.1507 33.8074 27.1507 33.8391C27.1507 33.8708 27.1507 33.9025 27.1507 33.9342C27.1507 33.9659 27.1507 33.9975 27.1507 34.0292C27.1507 34.0609 27.1507 34.1084 27.1507 34.1718C27.1507 34.2352 27.1507 34.2827 27.1507 34.3144C27.1507 34.3461 27.1507 34.3936 27.1507 34.4569V34.5525" stroke="black" stroke-miterlimit="10" stroke-linecap="round" stroke-linejoin="round"/>
<path id="Vector_12" d="M74.2595 25.2368C74.2595 25.2368 74.2595 25.2691 74.2595 25.3324C74.2595 25.3958 74.2595 25.4591 74.2595 25.5225C74.2595 25.5859 74.2595 25.6968 74.2595 25.8552C74.2595 26.0136 74.2595 26.1403 74.2595 26.2354C74.2595 26.3304 74.2595 26.4255 74.2595 26.5205C74.2595 26.6156 74.2595 26.7106 74.2595 26.8056C74.2595 26.9007 74.2595 26.9957 74.2595 27.0908C74.2595 27.1858 74.2595 27.265 74.2595 27.3284C74.2595 27.3918 74.2595 27.471 74.2595 27.566C74.2595 27.6611 74.2595 27.7561 74.2595 27.8512V27.9943" stroke="black" stroke-miterlimit="10" stroke-linecap="round" stroke-linejoin="round"/>
<path id="Vector_13" d="M68.9713 29.7051C68.9713 29.7051 68.9713 29.6412 68.9713 29.5145C68.9713 29.3878 68.9713 29.261 68.9713 29.1343C68.9713 29.0076 68.9713 28.8809 68.9713 28.7541C68.9713 28.6274 68.9713 28.5165 68.9713 28.4215C68.9713 28.3264 68.9713 28.263 68.9713 28.2314C68.9713 28.1997 68.9713 28.168 68.9713 28.1363C68.9713 28.1046 68.9713 28.0729 68.9713 28.0413C68.9713 28.0096 68.9713 27.9621 68.9713 27.8987V27.8031" stroke="black" stroke-miterlimit="10" stroke-linecap="round" stroke-linejoin="round"/>
<path id="Vector_14" d="M65.7607 31.1308C65.7607 31.1308 65.7607 31.0669 65.7607 30.9402C65.7607 30.8135 65.7607 30.6867 65.7607 30.56C65.7607 30.4333 65.7607 30.3541 65.7607 30.3224C65.7607 30.2907 65.7607 30.259 65.7607 30.2274C65.7607 30.1957 65.7607 30.1481 65.7607 30.0848C65.7607 30.0214 65.7607 29.9581 65.7607 29.8947C65.7607 29.8313 65.7607 29.7838 65.7607 29.7521C65.7607 29.7204 65.7607 29.6887 65.7607 29.6571C65.7607 29.6254 65.7607 29.5779 65.7607 29.5145C65.7607 29.4511 65.7607 29.4036 65.7607 29.3719C65.7607 29.3402 65.7607 29.2927 65.7607 29.2294V29.1338" stroke="black" stroke-miterlimit="10" stroke-linecap="round" stroke-linejoin="round"/>
<path id="Vector_15" d="M62.6444 30.0842C62.6444 30.0842 62.6444 30.1164 62.6444 30.1798C62.6444 30.2432 62.6444 30.3382 62.6444 30.465C62.6444 30.5917 62.6444 30.6867 62.6444 30.7501C62.6444 30.8135 62.6444 30.861 62.6444 30.8927C62.6444 30.9244 62.6444 30.9877 62.6444 31.0828C62.6444 31.1778 62.6444 31.2412 62.6444 31.2729C62.6444 31.3045 62.6444 31.3362 62.6444 31.3679C62.6444 31.3996 62.6444 31.4313 62.6444 31.4629C62.6444 31.4946 62.6444 31.5263 62.6444 31.558C62.6444 31.5897 62.6444 31.6214 62.6444 31.653C62.6444 31.6847 62.6444 31.7164 62.6444 31.7481C62.6444 31.7798 62.6444 31.8273 62.6444 31.8907V31.9862" stroke="black" stroke-miterlimit="10" stroke-linecap="round" stroke-linejoin="round"/>
<path id="Vector_16" d="M59.5282 30.8446C59.5282 30.8446 59.5282 30.956 59.5282 31.1778C59.5282 31.3996 59.5282 31.5422 59.5282 31.6055C59.5282 31.6689 59.5282 31.7481 59.5282 31.8431C59.5282 31.9382 59.5282 32.0174 59.5282 32.0808C59.5282 32.1441 59.5282 32.2233 59.5282 32.3184V32.4615" stroke="black" stroke-miterlimit="10" stroke-linecap="round" stroke-linejoin="round"/>
<path id="Vector_17" d="M45.3635 34.2674C45.3635 34.2674 45.3635 34.2193 45.3635 34.1243C45.3635 34.0292 45.3635 33.9658 45.3635 33.9342C45.3635 33.9025 45.3635 33.8391 45.3635 33.7441C45.3635 33.649 45.3635 33.554 45.3635 33.4589C45.3635 33.3639 45.3635 33.2847 45.3635 33.2213C45.3635 33.158 45.3635 33.1104 45.3635 33.0787C45.3635 33.0471 45.3635 33.0154 45.3635 32.9837C45.3635 32.952 45.3635 32.9045 45.3635 32.8411C45.3635 32.7778 45.3635 32.7302 45.3635 32.6986C45.3635 32.6669 45.3635 32.6194 45.3635 32.556V32.4604" stroke="black" stroke-miterlimit="10" stroke-linecap="round" stroke-linejoin="round"/>
<path id="Vector_18" d="M41.7751 34.6476C41.7751 34.6476 41.7751 34.6312 41.7751 34.5995C41.7751 34.5678 41.7751 34.4886 41.7751 34.3619C41.7751 34.2352 41.7751 34.1401 41.7751 34.0768C41.7751 34.0134 41.7751 33.9342 41.7751 33.8391C41.7751 33.7441 41.7751 33.6649 41.7751 33.6015C41.7751 33.5382 41.7751 33.4906 41.7751 33.4589C41.7751 33.4273 41.7751 33.3797 41.7751 33.3164C41.7751 33.253 41.7751 33.2055 41.7751 33.1738C41.7751 33.1421 41.7751 33.0946 41.7751 33.0312C41.7751 32.9679 41.7751 32.8887 41.7751 32.7936V32.6505" stroke="black" stroke-miterlimit="10" stroke-linecap="round" stroke-linejoin="round"/>
<path id="Vector_19" d="M35.0542 22.7611L38.1171 28.2615L41.01 22.7611H35.0542Z" fill="black" stroke="black" stroke-linecap="round"/>
<path id="Vector 4" d="M56.2963 31.4846V35.4221" stroke="black" stroke-width="2" stroke-linecap="round"/>
<path id="Vector 5" d="M71.3086 26.7596V30.6971" stroke="black" stroke-width="2" stroke-miterlimit="2.32452" stroke-linecap="round"/>
<path id="Vector 7" d="M10.4762 29.0673V31.5296" stroke="black" stroke-linecap="round"/>
<path id="Vector 8" d="M1.65583 25.0355V27.8028" stroke="black" stroke-linecap="round"/>
<path id="Vector 13" d="M30.7333 32.296V35.0081" stroke="black" stroke-linecap="round"/>
<path id="Vector 14" d="M34.438 32.4151V35.283" stroke="black" stroke-linecap="round"/>
<path id="Vector 15" d="M38.4691 32.2721V36.2096" stroke="black" stroke-width="2" stroke-linecap="round"/>
<path id="Vector 16" d="M49.0026 32.1507V34.446" stroke="black" stroke-linecap="round"/>
<path id="Vector 17" d="M52.8916 31.5615V34.5072" stroke="black" stroke-linecap="round"/>
</g>
<defs>
<clipPath id="clip0_44_76">
<rect width="76" height="63" fill="white" transform="translate(0 0.772064)"/>
</clipPath>
</defs>
</svg>
