<svg width="103" height="82" viewBox="0 0 103 82" fill="none" xmlns="http://www.w3.org/2000/svg">
<g id="scholarhat">
<path id="Vector" d="M48.1568 21.0179C49.9529 21.0179 51.4106 22.0003 51.4106 23.2109C51.4106 24.4214 49.9529 26.0685 48.1568 26.0685C46.3606 26.0685 44.9029 24.4214 44.9029 23.2109C44.9029 22.0003 46.3606 21.0179 48.1568 21.0179Z" fill="black"/>
<path id="Vector_2" d="M47.9163 19.2979C50.1667 19.2979 53.1953 21.1998 53.1953 23.5432C53.1953 25.8866 50.1667 27.7885 47.9163 27.7885C45.6659 27.7885 43.1182 25.8866 43.1182 23.5432C43.1182 21.1998 45.6659 19.2979 47.9163 19.2979Z" stroke="black" stroke-width="1.27763" stroke-linecap="round"/>
<path id="Vector_3" d="M18.593 36.9625C18.593 36.9625 47.8347 50.875 47.8347 50.6125C47.8347 50.35 94.7222 29.875 94.7222 29.875V22.525L48.843 1C48.843 1 1.95549 20.1625 1.70341 20.1625C1.45132 20.1625 1.70341 28.5625 1.70341 28.5625L18.593 36.9625Z" stroke="black" stroke-linecap="round"/>
<path id="Vector_4" d="M18.593 37.225V46.3671C18.593 46.3671 17.9441 52.4865 18.593 55.075C19.2419 57.6635 20.673 59.185 26.3311 62.8674C28.4956 64.2761 35.4875 66.0704 36.743 66.8875C41.2805 69.8406 57.918 67.9375 57.918 67.9375C57.918 67.9375 73.1691 64.3281 77.3284 57.9625C78.4412 56.2595 78.0386 56.9284 78.5888 50.8262C79.1391 44.724 78.5888 37.225 78.5888 37.225" stroke="black" stroke-linecap="round"/>
<path id="Vector_5" d="M1.38971 22.7875L48.569 44.3125L94.9238 24.3625" stroke="black" stroke-linecap="round"/>
<path id="Vector_6" d="M52.9816 23.5432C52.9816 23.5432 70.8373 25.3469 75.5638 27.775C80.2904 30.2031 86.2558 39.4053 85.3951 44.5225" stroke="black" stroke-linecap="round"/>
<path id="Vector_7" d="M86.0105 44.5225C88.2164 44.5225 90.0068 46.3868 90.0068 48.6839C90.0068 50.981 88.2164 52.8453 86.0105 52.8453C83.8045 52.8453 82.0142 50.981 82.0142 48.6839C82.0142 46.3868 83.8046 44.5225 86.0105 44.5225Z" stroke="black" stroke-width="0.626193" stroke-linecap="round"/>
<path id="Vector_8" d="M85.0293 52.883C85.1569 53.0159 84.9016 52.7501 85.0293 52.883Z" stroke="black" stroke-linecap="round"/>
<path id="Vector_9" d="M84.2635 53.1313C84.2635 53.1313 80.766 56.7115 81.8126 62.3353C82.8591 67.9591 82.3744 70.0441 83.2424 72.4365C84.1104 74.8289 85.2678 80.5441 85.2678 80.5441C85.2678 80.5441 90.8326 77.3543 92.6875 76.291C94.5425 75.2277 99.1013 74.397 101.239 73.7657C103.377 73.1343 95.6092 66.2562 94.9238 63.3986C94.2385 60.541 91.4112 55.4239 91.4112 55.4239L88.0926 52.6346" stroke="black" stroke-linecap="round"/>
</g>
</svg>
