<svg width="141" height="62" viewBox="0 0 141 62" fill="none" xmlns="http://www.w3.org/2000/svg">
<g filter="url(#filter0_d_280_30)">
<path d="M11.26 20.392C10.308 20.392 9.44933 20.3453 8.684 20.252C7.91867 20.1587 7.20933 20.0187 6.556 19.832C5.90267 19.6453 5.268 19.4027 4.652 19.104V14.792C5.51067 15.4827 6.48133 16.0053 7.564 16.36C8.64667 16.7147 9.67333 16.892 10.644 16.892C11.5027 16.892 12.156 16.7333 12.604 16.416C13.0707 16.08 13.304 15.576 13.304 14.904C13.304 14.4 13.0893 13.9987 12.66 13.7C12.2493 13.3827 11.6987 13.112 11.008 12.888C10.3173 12.6453 9.54267 12.3747 8.684 12.076C8.14267 11.908 7.61067 11.6933 7.088 11.432C6.56533 11.1707 6.09867 10.844 5.688 10.452C5.27733 10.0413 4.95067 9.54667 4.708 8.968C4.46533 8.38933 4.344 7.68 4.344 6.84C4.344 6.07467 4.484 5.33733 4.764 4.628C5.044 3.91867 5.47333 3.284 6.052 2.724C6.64933 2.164 7.40533 1.72533 8.32 1.408C9.23467 1.072 10.308 0.903999 11.54 0.903999C12.3053 0.903999 12.9773 0.950665 13.556 1.044C14.1533 1.13733 14.7227 1.27733 15.264 1.464C15.8053 1.632 16.356 1.856 16.916 2.136V6.504C16.4867 6.14933 16.0013 5.82267 15.46 5.524C14.9373 5.20667 14.3867 4.94533 13.808 4.74C13.2293 4.53467 12.6227 4.42267 11.988 4.404C11.428 4.38533 10.9147 4.44133 10.448 4.572C9.98133 4.70267 9.61733 4.91733 9.356 5.216C9.09467 5.496 8.964 5.86 8.964 6.308C8.964 6.83067 9.12267 7.24133 9.44 7.54C9.75733 7.83867 10.196 8.09067 10.756 8.296C11.316 8.48267 11.9413 8.688 12.632 8.912C13.3973 9.136 14.0973 9.388 14.732 9.668C15.3853 9.92933 15.9547 10.2653 16.44 10.676C16.9253 11.0867 17.2987 11.5907 17.56 12.188C17.8213 12.7853 17.952 13.504 17.952 14.344C17.952 15.464 17.6907 16.4907 17.168 17.424C16.6453 18.3387 15.8893 19.0667 14.9 19.608C13.9107 20.1307 12.6973 20.392 11.26 20.392ZM25.0682 20V4.824H19.8322V1.324H34.9242V4.824H29.6042V20H25.0682ZM46.1778 20.588C43.3031 20.588 41.1471 19.9813 39.7097 18.768C38.2911 17.536 37.5818 15.6227 37.5818 13.028V1.324H42.3138V12.832C42.3138 14.2693 42.6031 15.3333 43.1818 16.024C43.7604 16.7147 44.6844 17.06 45.9538 17.06C47.1111 17.06 48.0071 16.7147 48.6418 16.024C49.2951 15.3333 49.6218 14.2693 49.6218 12.832V1.324H53.9338V13.028C53.9338 14.764 53.5978 16.192 52.9258 17.312C52.2724 18.4133 51.3671 19.2347 50.2098 19.776C49.0524 20.3173 47.7084 20.588 46.1778 20.588ZM57.8982 20V1.324H65.4022C68.5755 1.324 70.9088 2.11733 72.4022 3.704C73.8955 5.272 74.6422 7.596 74.6422 10.676C74.6422 13.7373 73.8955 16.0613 72.4022 17.648C70.9088 19.216 68.5755 20 65.4022 20H57.8982ZM62.4342 16.5H64.8702C66.5502 16.5 67.8195 16.0333 68.6782 15.1C69.5555 14.1667 69.9942 12.692 69.9942 10.676C69.9942 8.62267 69.5555 7.13867 68.6782 6.224C67.8195 5.29067 66.5502 4.824 64.8702 4.824H62.4342V16.5ZM83.4884 20V11.936L76.4044 1.324H81.9764L87.2964 10.256H85.1964L90.0404 1.324H94.5484L87.3804 13.056L88.0244 10.648V20H83.4884ZM49.9514 53.392C48.9994 53.392 48.1407 53.3453 47.3754 53.252C46.6101 53.1587 45.9007 53.0187 45.2474 52.832C44.5941 52.6453 43.9594 52.4027 43.3434 52.104V47.792C44.2021 48.4827 45.1727 49.0053 46.2554 49.36C47.3381 49.7147 48.3647 49.892 49.3354 49.892C50.1941 49.892 50.8474 49.7333 51.2954 49.416C51.7621 49.08 51.9954 48.576 51.9954 47.904C51.9954 47.4 51.7807 46.9987 51.3514 46.7C50.9407 46.3827 50.3901 46.112 49.6994 45.888C49.0087 45.6453 48.2341 45.3747 47.3754 45.076C46.8341 44.908 46.3021 44.6933 45.7794 44.432C45.2567 44.1707 44.7901 43.844 44.3794 43.452C43.9687 43.0413 43.6421 42.5467 43.3994 41.968C43.1567 41.3893 43.0354 40.68 43.0354 39.84C43.0354 39.0747 43.1754 38.3373 43.4554 37.628C43.7354 36.9187 44.1647 36.284 44.7434 35.724C45.3407 35.164 46.0967 34.7253 47.0114 34.408C47.9261 34.072 48.9994 33.904 50.2314 33.904C50.9967 33.904 51.6687 33.9507 52.2474 34.044C52.8447 34.1373 53.4141 34.2773 53.9554 34.464C54.4967 34.632 55.0474 34.856 55.6074 35.136V39.504C55.1781 39.1493 54.6927 38.8227 54.1514 38.524C53.6287 38.2067 53.0781 37.9453 52.4994 37.74C51.9207 37.5347 51.3141 37.4227 50.6794 37.404C50.1194 37.3853 49.6061 37.4413 49.1394 37.572C48.6727 37.7027 48.3087 37.9173 48.0474 38.216C47.7861 38.496 47.6554 38.86 47.6554 39.308C47.6554 39.8307 47.8141 40.2413 48.1314 40.54C48.4487 40.8387 48.8874 41.0907 49.4474 41.296C50.0074 41.4827 50.6327 41.688 51.3234 41.912C52.0887 42.136 52.7887 42.388 53.4234 42.668C54.0767 42.9293 54.6461 43.2653 55.1314 43.676C55.6167 44.0867 55.9901 44.5907 56.2514 45.188C56.5127 45.7853 56.6434 46.504 56.6434 47.344C56.6434 48.464 56.3821 49.4907 55.8594 50.424C55.3367 51.3387 54.5807 52.0667 53.5914 52.608C52.6021 53.1307 51.3887 53.392 49.9514 53.392ZM59.8396 53V34.324H64.4596L70.8716 43.256L68.4076 43.34L75.0436 34.324H79.5516V53H75.0156V37.74L75.9116 39.196L69.5276 47.68L63.1996 39.056L64.1796 38.384V53H59.8396ZM81.8953 53L88.9513 34.324H93.9073L100.515 53H95.8673L89.9033 35.388L92.1153 35.192L86.1793 53H81.8953ZM85.8713 48.968L86.7953 45.636H95.2793L95.6993 48.968H85.8713ZM102.879 53V34.324H111.979C114.088 34.324 115.74 34.8187 116.935 35.808C118.129 36.7787 118.727 38.2627 118.727 40.26C118.727 41.0813 118.559 41.8933 118.223 42.696C117.887 43.48 117.392 44.1613 116.739 44.74C116.085 45.3 115.264 45.664 114.275 45.832L113.995 44.292L119.679 53H113.911L109.235 44.852L111.251 46.56H107.415V53H102.879ZM107.415 43.228H111.223C112.025 43.228 112.66 43.0133 113.127 42.584C113.593 42.1547 113.827 41.4453 113.827 40.456C113.827 39.5973 113.612 38.944 113.183 38.496C112.772 38.048 112.184 37.824 111.419 37.824H107.415V43.228ZM126.24 53V37.824H121.004V34.324H136.096V37.824H130.776V53H126.24Z" fill="black"/>
</g>
<defs>
<filter id="filter0_d_280_30" x="0.343994" y="0.903992" width="139.752" height="60.488" filterUnits="userSpaceOnUse" color-interpolation-filters="sRGB">
<feFlood flood-opacity="0" result="BackgroundImageFix"/>
<feColorMatrix in="SourceAlpha" type="matrix" values="0 0 0 0 0 0 0 0 0 0 0 0 0 0 0 0 0 0 127 0" result="hardAlpha"/>
<feOffset dy="4"/>
<feGaussianBlur stdDeviation="2"/>
<feComposite in2="hardAlpha" operator="out"/>
<feColorMatrix type="matrix" values="0 0 0 0 0 0 0 0 0 0 0 0 0 0 0 0 0 0 0.25 0"/>
<feBlend mode="normal" in2="BackgroundImageFix" result="effect1_dropShadow_280_30"/>
<feBlend mode="normal" in="SourceGraphic" in2="effect1_dropShadow_280_30" result="shape"/>
</filter>
</defs>
</svg>
