<svg width="53" height="58" viewBox="0 0 53 58" fill="none" xmlns="http://www.w3.org/2000/svg">
<g id="todo list">
<path id="Vector" d="M38.5651 20.0307C38.5651 20.0307 38.2997 9.0033 37.5036 4.12724C36.7075 -0.748827 29.277 1.12658 29.277 1.12658H17.6006C17.6006 1.12658 3.60214 0.826519 2.4743 1.12658C1.34646 1.42665 1.14743 11.6289 1.14743 11.6289V26.108V37.1344C1.14743 37.1344 0.815713 47.5617 1.14743 52.4378C1.47915 57.3139 9.90476 56.6387 9.90476 56.6387H21.31H31.9308C31.9308 56.6387 36.7075 56.9388 37.5036 56.6387C38.2997 56.3386 38.5651 45.8363 38.5651 45.8363V42.2356" stroke="black" stroke-width="0.958333" stroke-linecap="round"/>
<path id="Vector_2" d="M31.5013 48.1567C33.8998 45.6304 40.1752 33.8907 40.1752 33.8907C40.1752 33.8907 46.615 21.6309 48.0606 17.5443C49.5063 13.4577 51.8719 7.73645 51.8719 7.73645C51.8719 7.73645 52.4304 4.61577 51.2148 3.57554C49.9991 2.53531 48.0606 3.57554 48.0606 3.57554L45.5636 9.37109L41.8837 17.5443L36.6268 28.7721L32.4213 37.4572C32.4213 37.4572 31.0413 40.2219 30.5813 41.7079C30.1214 43.1939 29.8257 43.8696 30.0557 45.4818C30.2856 47.094 29.1028 50.683 31.5013 48.1567Z" stroke="black" stroke-width="0.958333" stroke-linecap="round"/>
<path id="Vector_3" d="M46.9813 6.53619C46.9813 6.53619 47.0038 6.58633 47.0476 6.68534C47.0914 6.78436 47.1352 6.85862 47.179 6.90813C47.2228 6.95764 47.2665 7.00714 47.3103 7.05665C47.3541 7.10616 47.3979 7.13092 47.4417 7.13092C47.4855 7.13092 47.5293 7.15567 47.5731 7.20518C47.6169 7.25469 47.7921 7.37846 48.0987 7.57649C48.4052 7.77452 48.5585 7.8983 48.5585 7.94781C48.5585 7.99731 48.6023 8.02207 48.6899 8.02207C48.7775 8.02207 48.8213 8.07157 48.8213 8.17059C48.8213 8.26961 48.8432 8.31912 48.887 8.31912C48.9308 8.31912 48.9965 8.31912 49.0841 8.31912C49.1717 8.31912 49.2812 8.34387 49.4125 8.39338C49.5439 8.44289 49.6315 8.46764 49.6753 8.46764C49.7191 8.46764 49.7848 8.4924 49.8724 8.5419C49.96 8.59141 50.0476 8.64092 50.1352 8.69043C50.2228 8.73994 50.3104 8.76469 50.398 8.76469C50.4855 8.76469 50.5512 8.76469 50.595 8.76469C50.6388 8.76469 50.7045 8.76469 50.7921 8.76469C50.8797 8.76469 50.9673 8.76469 51.0549 8.76469H51.1868" stroke="black" stroke-width="0.958333" stroke-miterlimit="10" stroke-linecap="round" stroke-linejoin="round"/>
<path id="Vector_4" d="M31.8717 39.5094C31.8717 39.5094 31.9161 39.5094 32.0037 39.5094C32.0913 39.5094 32.1789 39.5094 32.2664 39.5094C32.354 39.5094 32.4854 39.5341 32.6606 39.5836C32.8358 39.6332 32.9891 39.6827 33.1205 39.7322C33.2519 39.7817 33.3613 39.8064 33.4489 39.8064C33.5365 39.8064 33.6241 39.8312 33.7117 39.8807C33.7993 39.9302 33.8869 39.9797 33.9745 40.0292C34.0621 40.0787 34.1716 40.153 34.303 40.252C34.4343 40.351 34.5219 40.4005 34.5657 40.4005C34.6095 40.4005 34.6533 40.4253 34.6971 40.4748C34.7409 40.5243 34.7847 40.5491 34.8285 40.5491C34.8723 40.5491 34.938 40.5986 35.0256 40.6976C35.1132 40.7966 35.1789 40.8709 35.2227 40.9204C35.2665 40.9699 35.3103 41.0194 35.3541 41.0689C35.3979 41.1184 35.4198 41.1679 35.4198 41.2174C35.4198 41.2669 35.4198 41.3164 35.4198 41.366C35.4198 41.4155 35.4635 41.4402 35.5511 41.4402C35.6387 41.4402 35.7044 41.465 35.7482 41.5145L35.8145 41.5894" stroke="black" stroke-width="0.958333" stroke-miterlimit="10" stroke-linecap="round" stroke-linejoin="round"/>
<path id="Vector_5" d="M33.0321 36.6817C33.0321 36.6817 33.0461 36.6817 33.073 36.6817C33.0999 36.6817 33.2209 36.6817 33.436 36.6817C33.6511 36.6817 33.7722 36.6817 33.7991 36.6817C33.826 36.6817 33.8663 36.6817 33.9201 36.6817C33.9739 36.6817 34.0276 36.6817 34.0814 36.6817C34.1352 36.6817 34.2024 36.6969 34.2831 36.7273C34.3638 36.7577 34.4445 36.7881 34.5251 36.8185C34.6058 36.8489 34.6596 36.8641 34.6865 36.8641C34.7134 36.8641 34.7672 36.8793 34.8479 36.9097C34.9285 36.9401 34.9689 36.9705 34.9689 37.0009C34.9689 37.0313 34.9823 37.0465 35.0092 37.0465C35.0361 37.0465 35.063 37.0465 35.0899 37.0465C35.1168 37.0465 35.1437 37.0617 35.1706 37.0921C35.1975 37.1225 35.2243 37.1529 35.2512 37.1833C35.2781 37.2137 35.3185 37.2289 35.3722 37.2289C35.426 37.2289 35.4529 37.2441 35.4529 37.2745C35.4529 37.3049 35.4798 37.3201 35.5336 37.3201C35.5874 37.3201 35.6277 37.3353 35.6546 37.3657C35.6815 37.3961 35.7084 37.4265 35.7353 37.4569C35.7622 37.4873 35.8025 37.5025 35.8563 37.5025C35.9101 37.5025 35.937 37.5177 35.937 37.5481C35.937 37.5785 35.9504 37.5937 35.9773 37.5937C36.0042 37.5937 36.0446 37.6241 36.0983 37.6849C36.1521 37.7457 36.1925 37.7913 36.2194 37.8217C36.2463 37.8521 36.2731 37.8673 36.3 37.8673C36.3269 37.8673 36.3538 37.8825 36.3807 37.9129C36.4076 37.9433 36.4345 37.9737 36.4614 38.0041C36.4883 38.0345 36.5152 38.0497 36.5421 38.0497C36.569 38.0497 36.5824 38.0953 36.5824 38.1865C36.5824 38.2777 36.5958 38.3233 36.6227 38.3233C36.6496 38.3233 36.6765 38.3385 36.7034 38.3689C36.7303 38.3993 36.7438 38.4449 36.7438 38.5057C36.7438 38.5665 36.7706 38.6273 36.8244 38.6881C36.8782 38.7489 36.9051 38.7945 36.9051 38.8249C36.9051 38.8553 36.9051 38.8857 36.9051 38.9161C36.9051 38.9465 36.9186 38.9921 36.9454 39.0529L36.9863 39.1447" stroke="black" stroke-width="0.958333" stroke-miterlimit="10" stroke-linecap="round" stroke-linejoin="round"/>
<path id="Vector_6" d="M39.1635 39.4183C39.1635 39.4183 39.1775 39.4177 39.2044 39.4177C39.2313 39.4177 39.285 39.3721 39.3657 39.2809C39.4464 39.1897 39.5136 39.1137 39.5674 39.0529C39.6212 38.9921 39.6884 38.9313 39.7691 38.8705C39.8498 38.8097 39.9305 38.7489 40.0111 38.6881C40.0918 38.6273 40.159 38.5817 40.2128 38.5513C40.2666 38.5209 40.3204 38.4905 40.3742 38.4601C40.428 38.4297 40.4683 38.3993 40.4952 38.3689C40.5221 38.3385 40.549 38.3233 40.5759 38.3233C40.6028 38.3233 40.6431 38.3081 40.6969 38.2777C40.7507 38.2473 40.8179 38.2169 40.8986 38.1865C40.9793 38.1561 41.033 38.1409 41.0599 38.1409C41.0868 38.1409 41.1406 38.1409 41.2213 38.1409C41.302 38.1409 41.3692 38.1409 41.423 38.1409C41.4768 38.1409 41.5305 38.1409 41.5843 38.1409C41.6381 38.1409 41.6785 38.1409 41.7053 38.1409C41.7322 38.1409 41.786 38.1409 41.8667 38.1409C41.9474 38.1409 42.0012 38.1409 42.0281 38.1409C42.0549 38.1409 42.0818 38.1409 42.1087 38.1409C42.1356 38.1409 42.1625 38.1409 42.1894 38.1409C42.2163 38.1409 42.2566 38.1409 42.3104 38.1409C42.3642 38.1409 42.4045 38.1409 42.4314 38.1409C42.4583 38.1409 42.4987 38.1409 42.5525 38.1409C42.6062 38.1409 42.6466 38.1409 42.6735 38.1409C42.7004 38.1409 42.7272 38.1409 42.7541 38.1409C42.781 38.1409 42.8214 38.1409 42.8752 38.1409C42.9289 38.1409 42.9693 38.1409 42.9962 38.1409C43.0231 38.1409 43.05 38.1409 43.0768 38.1409C43.1037 38.1409 43.1575 38.1409 43.2382 38.1409H43.3598" stroke="black" stroke-width="0.958333" stroke-miterlimit="10" stroke-linecap="round" stroke-linejoin="round"/>
<path id="Vector_7" d="M41.0191 36.4999C41.0191 36.4999 41.0196 36.4689 41.0196 36.4081C41.0196 36.3473 41.0465 36.2865 41.1003 36.2257C41.1541 36.1649 41.1944 36.1193 41.2213 36.0889C41.2482 36.0585 41.2885 35.9977 41.3423 35.9065C41.3961 35.8153 41.4499 35.7697 41.5037 35.7697C41.5575 35.7697 41.6113 35.7241 41.665 35.6329C41.7188 35.5417 41.7592 35.4961 41.7861 35.4961C41.8129 35.4961 41.8533 35.4809 41.9071 35.4505C41.9609 35.4201 42.0012 35.3897 42.0281 35.3593C42.055 35.3289 42.0819 35.2985 42.1088 35.2681C42.1357 35.2377 42.1625 35.2225 42.1894 35.2225C42.2163 35.2225 42.2432 35.2225 42.2701 35.2225C42.297 35.2225 42.3373 35.2225 42.3911 35.2225H42.4724" stroke="black" stroke-width="0.958333" stroke-miterlimit="10" stroke-linecap="round" stroke-linejoin="round"/>
<path id="Vector_8" d="M39.8069 14.7827C39.8069 14.7827 39.8069 14.8188 39.8069 14.8898C39.8069 14.9607 39.8069 15.0672 39.8069 15.2091C39.8069 15.3511 39.8069 15.4398 39.8069 15.4752C39.8069 15.5107 39.8069 15.5462 39.8069 15.5817C39.8069 15.6172 39.8069 15.7059 39.8069 15.8478C39.8069 15.9898 39.8069 16.0785 39.8069 16.114C39.8069 16.1494 39.8069 16.2381 39.8069 16.3801C39.8069 16.522 39.8069 16.6107 39.8069 16.6462C39.8069 16.6817 39.8069 16.7527 39.8069 16.8591V17.0194" stroke="black" stroke-width="0.958333" stroke-miterlimit="10" stroke-linecap="round" stroke-linejoin="round"/>
<path id="Vector_9" d="M50.2892 2.99276C50.2892 2.99276 50.2898 2.95793 50.2898 2.88953C50.2898 2.82113 50.32 2.75273 50.3806 2.68433C50.4411 2.61593 50.4864 2.54753 50.5167 2.47913C50.547 2.41073 50.5621 2.34233 50.5621 2.27393C50.5621 2.20553 50.5772 2.13713 50.6075 2.06873C50.6377 2.00033 50.668 1.96614 50.6982 1.96614C50.7285 1.96614 50.7587 1.94904 50.789 1.91484C50.8192 1.88064 50.8344 1.84644 50.8344 1.81224C50.8344 1.77804 50.8344 1.74384 50.8344 1.70964C50.8344 1.67544 50.8495 1.65834 50.8797 1.65834C50.91 1.65834 50.9403 1.64124 50.9705 1.60704C51.0008 1.57284 51.031 1.55574 51.0613 1.55574C51.0915 1.55574 51.1066 1.53864 51.1066 1.50444C51.1066 1.47024 51.1218 1.45314 51.152 1.45314C51.1823 1.45314 51.2125 1.45314 51.2428 1.45314C51.273 1.45314 51.3033 1.45314 51.3336 1.45314C51.3638 1.45314 51.3941 1.45314 51.4243 1.45314C51.4546 1.45314 51.4697 1.47024 51.4697 1.50444C51.4697 1.53864 51.4697 1.58994 51.4697 1.65834C51.4697 1.72674 51.4697 1.79513 51.4697 1.86353C51.4697 1.93193 51.4697 1.98324 51.4697 2.01744C51.4697 2.05164 51.4546 2.10294 51.4243 2.17134C51.3941 2.23974 51.3789 2.29103 51.3789 2.32523C51.3789 2.35943 51.3638 2.39363 51.3336 2.42783C51.3033 2.46203 51.2882 2.49623 51.2882 2.53043C51.2882 2.56463 51.2579 2.59883 51.1974 2.63303C51.1369 2.66723 51.0915 2.70143 51.0613 2.73563C51.031 2.76983 51.0159 2.80403 51.0159 2.83823C51.0159 2.87243 51.0008 2.90663 50.9705 2.94083C50.9403 2.97503 50.91 3.00923 50.8797 3.04343C50.8495 3.07763 50.8344 3.11183 50.8344 3.14603C50.8344 3.18023 50.8192 3.19733 50.789 3.19733C50.7587 3.19733 50.7285 3.19733 50.6982 3.19733C50.668 3.19733 50.6528 3.16313 50.6528 3.09473C50.6528 3.02633 50.6528 2.95793 50.6528 2.88953C50.6528 2.82113 50.6528 2.76983 50.6528 2.73563C50.6528 2.70143 50.6528 2.66723 50.6528 2.63303C50.6528 2.59883 50.6528 2.56463 50.6528 2.53043C50.6528 2.49623 50.6528 2.46203 50.6528 2.42783C50.6528 2.39363 50.6528 2.35943 50.6528 2.32523C50.6528 2.29103 50.6528 2.25683 50.6528 2.22263C50.6528 2.18843 50.6528 2.15424 50.6528 2.12004C50.6528 2.08584 50.668 2.06873 50.6982 2.06873C50.7285 2.06873 50.7739 2.05164 50.8344 2.01744C50.8949 1.98324 50.9403 1.96614 50.9705 1.96614C51.0008 1.96614 51.0159 1.93193 51.0159 1.86353C51.0159 1.79513 51.031 1.76094 51.0613 1.76094C51.0915 1.76094 51.1218 1.74384 51.152 1.70964C51.1823 1.67544 51.2125 1.64124 51.2428 1.60704C51.273 1.57284 51.3033 1.55574 51.3336 1.55574C51.3638 1.55574 51.3789 1.57284 51.3789 1.60704C51.3789 1.64124 51.3638 1.67544 51.3336 1.70964C51.3033 1.74384 51.273 1.76094 51.2428 1.76094C51.2125 1.76094 51.1974 1.77804 51.1974 1.81224C51.1974 1.84644 51.1823 1.88064 51.152 1.91484C51.1218 1.94904 51.0915 1.98324 51.0613 2.01744C51.031 2.05164 51.0159 2.10294 51.0159 2.17134V2.27456" stroke="black" stroke-width="0.958333" stroke-miterlimit="10" stroke-linecap="round" stroke-linejoin="round"/>
<path id="Vector_10" d="M6.45215 23.2036C6.45215 23.2036 6.45215 23.2726 6.45215 23.4094C6.45215 23.5462 6.45215 23.7514 6.45215 24.025C6.45215 24.2986 6.45215 24.4696 6.45215 24.538C6.45215 24.6064 6.45215 24.6748 6.45215 24.7432C6.45215 24.8116 6.45215 24.9313 6.45215 25.1023C6.45215 25.2733 6.45215 25.4101 6.45215 25.5127C6.45215 25.6153 6.45215 25.7008 6.45215 25.7692C6.45215 25.8376 6.45215 25.906 6.45215 25.9744C6.45215 26.0428 6.46728 26.1283 6.49753 26.2309C6.52779 26.3335 6.54291 26.419 6.54291 26.4874C6.54291 26.5558 6.55804 26.6242 6.58829 26.6926C6.61855 26.761 6.63367 26.8294 6.63367 26.8978C6.63367 26.9662 6.6488 27.0175 6.67905 27.0517C6.70931 27.0859 6.72443 27.1372 6.72443 27.2056C6.72443 27.274 6.73956 27.3253 6.76981 27.3595C6.80007 27.3937 6.83032 27.445 6.86058 27.5134C6.89083 27.5818 6.93621 27.6502 6.99672 27.7186C7.05723 27.787 7.10261 27.8212 7.13286 27.8212C7.16312 27.8212 7.17824 27.8383 7.17824 27.8725C7.17824 27.9067 7.22362 27.9751 7.31438 28.0777C7.40515 28.1803 7.49591 28.2316 7.58667 28.2316C7.67743 28.2316 7.73793 28.2487 7.76819 28.2829C7.79844 28.3171 7.8287 28.3513 7.85895 28.3855C7.8892 28.4197 7.96484 28.4539 8.08585 28.4881C8.20687 28.5223 8.31276 28.5394 8.40352 28.5394C8.49428 28.5394 8.55479 28.5394 8.58504 28.5394C8.61529 28.5394 8.64555 28.5394 8.6758 28.5394C8.70606 28.5394 8.75144 28.5394 8.81194 28.5394C8.87245 28.5394 8.97834 28.5394 9.12961 28.5394C9.28087 28.5394 9.38677 28.5394 9.44727 28.5394C9.50778 28.5394 9.55316 28.5394 9.58341 28.5394C9.61367 28.5394 9.67418 28.5394 9.76494 28.5394C9.8557 28.5394 9.93133 28.5394 9.99184 28.5394C10.0523 28.5394 10.1129 28.5394 10.1734 28.5394C10.2339 28.5394 10.2944 28.5394 10.3549 28.5394C10.4154 28.5394 10.4759 28.5394 10.5364 28.5394C10.5969 28.5394 10.6423 28.5394 10.6725 28.5394C10.7028 28.5394 10.7331 28.5223 10.7633 28.4881C10.7936 28.4539 10.8238 28.4197 10.8541 28.3855C10.8843 28.3513 10.9297 28.3171 10.9902 28.2829C11.0507 28.2487 11.081 28.2145 11.081 28.1803C11.081 28.1461 11.1112 28.0948 11.1717 28.0264C11.2322 27.958 11.2625 27.9067 11.2625 27.8725C11.2625 27.8383 11.2776 27.8041 11.3079 27.7699C11.3381 27.7357 11.3684 27.6502 11.3986 27.5134C11.4289 27.3766 11.444 27.2911 11.444 27.2569C11.444 27.2227 11.4591 27.1543 11.4894 27.0517C11.5197 26.9491 11.5348 26.8465 11.5348 26.7439C11.5348 26.6413 11.5499 26.5387 11.5802 26.4361C11.6104 26.3335 11.6255 26.2651 11.6255 26.2309C11.6255 26.1967 11.6255 26.1283 11.6255 26.0257C11.6255 25.9231 11.6255 25.8205 11.6255 25.7179C11.6255 25.6153 11.6255 25.4785 11.6255 25.3075C11.6255 25.1365 11.6255 25.0339 11.6255 24.9997C11.6255 24.9655 11.6255 24.88 11.6255 24.7432C11.6255 24.6064 11.6255 24.4867 11.6255 24.3841C11.6255 24.2815 11.6255 24.1789 11.6255 24.0763C11.6255 23.9737 11.6255 23.854 11.6255 23.7172C11.6255 23.5804 11.6255 23.4778 11.6255 23.4094C11.6255 23.341 11.6255 23.2726 11.6255 23.2042C11.6255 23.1358 11.6255 23.0845 11.6255 23.0503C11.6255 23.0161 11.6255 22.9819 11.6255 22.9477C11.6255 22.9135 11.6255 22.8793 11.6255 22.8451C11.6255 22.8109 11.6255 22.7767 11.6255 22.7425C11.6255 22.7083 11.6255 22.6741 11.6255 22.6399C11.6255 22.6057 11.6255 22.5715 11.6255 22.5373C11.6255 22.5031 11.6104 22.486 11.5802 22.486C11.5499 22.486 11.5197 22.486 11.4894 22.486C11.4591 22.486 11.3835 22.4518 11.2625 22.3834C11.1415 22.315 11.0205 22.2808 10.8995 22.2808C10.7784 22.2808 10.7028 22.2808 10.6725 22.2808C10.6423 22.2808 10.5818 22.2808 10.491 22.2808C10.4003 22.2808 10.3095 22.2808 10.2187 22.2808C10.128 22.2808 10.0675 22.2808 10.0372 22.2808C10.007 22.2808 9.97671 22.2808 9.94646 22.2808C9.9162 22.2808 9.87082 22.2637 9.81032 22.2295C9.74981 22.1953 9.70443 22.1782 9.67418 22.1782C9.64392 22.1782 9.59854 22.1782 9.53803 22.1782C9.47753 22.1782 9.41702 22.1782 9.35651 22.1782C9.296 22.1782 9.20524 22.1782 9.08423 22.1782C8.96321 22.1782 8.88758 22.1782 8.85732 22.1782C8.82707 22.1782 8.76656 22.1782 8.6758 22.1782C8.58504 22.1782 8.47915 22.1782 8.35814 22.1782C8.23712 22.1782 8.11611 22.1782 7.99509 22.1782C7.87408 22.1782 7.75306 22.1782 7.63205 22.1782C7.51103 22.1782 7.4354 22.1782 7.40515 22.1782C7.37489 22.1782 7.34464 22.1782 7.31438 22.1782C7.28413 22.1782 7.22362 22.1782 7.13286 22.1782C7.0421 22.1782 6.96646 22.1782 6.90596 22.1782C6.84545 22.1782 6.80007 22.1782 6.76981 22.1782C6.73956 22.1782 6.70931 22.2295 6.67905 22.3321C6.6488 22.4347 6.61855 22.486 6.58829 22.486C6.55804 22.486 6.52779 22.486 6.49753 22.486C6.46728 22.486 6.43702 22.5031 6.40677 22.5373C6.37652 22.5715 6.36139 22.6057 6.36139 22.6399C6.36139 22.6741 6.34626 22.7254 6.31601 22.7938C6.28576 22.8622 6.27063 22.9306 6.27063 22.999V23.1023" stroke="black" stroke-width="0.958333" stroke-miterlimit="10" stroke-linecap="round" stroke-linejoin="round"/>
<path id="Vector_11" d="M6.7244 12.841C6.7244 12.841 6.7244 12.9272 6.7244 13.0982C6.7244 13.2692 6.7244 13.4231 6.7244 13.5599C6.7244 13.6967 6.7244 13.8506 6.7244 14.0216C6.7244 14.1926 6.7244 14.432 6.7244 14.7398C6.7244 15.0476 6.7244 15.2528 6.7244 15.3554C6.7244 15.458 6.7244 15.5777 6.7244 15.7145C6.7244 15.8513 6.7244 15.9881 6.7244 16.1249C6.7244 16.2617 6.7244 16.3472 6.7244 16.3814C6.7244 16.4156 6.7244 16.4669 6.7244 16.5353C6.7244 16.6037 6.7244 16.655 6.7244 16.6892C6.7244 16.7234 6.7244 16.7747 6.7244 16.8431C6.7244 16.9115 6.7244 16.9799 6.7244 17.0483C6.7244 17.1167 6.73953 17.1509 6.76978 17.1509C6.80004 17.1509 6.81516 17.1851 6.81516 17.2535C6.81516 17.3219 6.84542 17.3732 6.90592 17.4074C6.96643 17.4416 7.02694 17.4758 7.08745 17.51C7.14796 17.5442 7.20846 17.5613 7.26897 17.5613C7.32948 17.5613 7.37486 17.5784 7.40511 17.6126C7.43537 17.6468 7.45049 17.681 7.45049 17.7152C7.45049 17.7494 7.49587 17.7665 7.58663 17.7665C7.6774 17.7665 7.7379 17.8007 7.76816 17.8691C7.79841 17.9375 7.84379 17.9717 7.9043 17.9717C7.9648 17.9717 8.01018 17.9717 8.04044 17.9717C8.07069 17.9717 8.1312 17.9717 8.22196 17.9717C8.31273 17.9717 8.37323 17.9717 8.40349 17.9717C8.43374 17.9717 8.46399 17.9717 8.49425 17.9717C8.5245 17.9717 8.58501 17.9717 8.67577 17.9717C8.76653 17.9717 8.82704 17.9717 8.85729 17.9717C8.88754 17.9717 8.96318 17.9717 9.08419 17.9717C9.20521 17.9717 9.29597 17.9717 9.35648 17.9717C9.41698 17.9717 9.47749 17.9717 9.538 17.9717C9.59851 17.9717 9.68927 17.9717 9.81028 17.9717C9.9313 17.9717 10.0372 17.9717 10.1279 17.9717C10.2187 17.9717 10.2943 17.9717 10.3548 17.9717C10.4154 17.9717 10.4759 17.9717 10.5364 17.9717C10.5969 17.9717 10.6574 17.9546 10.7179 17.9204C10.7784 17.8862 10.8238 17.8691 10.854 17.8691C10.8843 17.8691 10.9145 17.852 10.9448 17.8178C10.9751 17.7836 11.0053 17.7494 11.0356 17.7152C11.0658 17.681 11.0961 17.6639 11.1263 17.6639C11.1566 17.6639 11.1717 17.6468 11.1717 17.6126C11.1717 17.5784 11.202 17.51 11.2625 17.4074C11.323 17.3048 11.3684 17.2022 11.3986 17.0996C11.4289 16.997 11.444 16.9286 11.444 16.8944C11.444 16.8602 11.444 16.7747 11.444 16.6379C11.444 16.5011 11.444 16.4156 11.444 16.3814C11.444 16.3472 11.4591 16.2275 11.4894 16.0223C11.5196 15.8171 11.5347 15.6974 11.5347 15.6632C11.5347 15.629 11.5347 15.5948 11.5347 15.5606C11.5347 15.5264 11.5347 15.458 11.5347 15.3554C11.5347 15.2528 11.5347 15.1844 11.5347 15.1502C11.5347 15.116 11.5347 15.0818 11.5347 15.0476C11.5347 15.0134 11.5347 14.9792 11.5347 14.945C11.5347 14.9108 11.5347 14.8766 11.5347 14.8424C11.5347 14.8082 11.5347 14.774 11.5347 14.7398C11.5347 14.7056 11.5347 14.6543 11.5347 14.5859C11.5347 14.5175 11.5347 14.4662 11.5347 14.432C11.5347 14.3978 11.5347 14.3636 11.5347 14.3294C11.5347 14.2952 11.5347 14.2439 11.5347 14.1755C11.5347 14.1071 11.5347 14.0558 11.5347 14.0216C11.5347 13.9874 11.5347 13.9532 11.5347 13.919C11.5347 13.8848 11.5196 13.8677 11.4894 13.8677C11.4591 13.8677 11.3835 13.8164 11.2625 13.7138C11.1414 13.6112 11.0658 13.5428 11.0356 13.5086C11.0053 13.4744 10.9751 13.4573 10.9448 13.4573C10.9145 13.4573 10.8692 13.4573 10.8087 13.4573C10.7482 13.4573 10.7179 13.4402 10.7179 13.406C10.7179 13.3718 10.6574 13.3547 10.5364 13.3547C10.4154 13.3547 10.3246 13.3547 10.2641 13.3547C10.2036 13.3547 10.1582 13.3547 10.1279 13.3547C10.0977 13.3547 10.0221 13.3547 9.90105 13.3547C9.78003 13.3547 9.68927 13.3547 9.62876 13.3547C9.56826 13.3547 9.52287 13.3547 9.49262 13.3547C9.46237 13.3547 9.41698 13.3547 9.35648 13.3547C9.29597 13.3547 9.22033 13.3547 9.12957 13.3547C9.03881 13.3547 8.93293 13.3547 8.81191 13.3547C8.6909 13.3547 8.58501 13.3547 8.49425 13.3547C8.40349 13.3547 8.32785 13.3547 8.26734 13.3547C8.20684 13.3547 8.16145 13.3547 8.1312 13.3547C8.10095 13.3547 8.07069 13.3547 8.04044 13.3547C8.01018 13.3547 7.9648 13.3547 7.9043 13.3547C7.84379 13.3547 7.75303 13.3547 7.63201 13.3547C7.511 13.3547 7.37486 13.3547 7.22359 13.3547C7.07232 13.3547 6.9513 13.3547 6.86054 13.3547C6.76978 13.3547 6.69415 13.3547 6.63364 13.3547H6.54233" stroke="black" stroke-width="0.958333" stroke-miterlimit="10" stroke-linecap="round" stroke-linejoin="round"/>
<path id="Vector_12" d="M7.08744 32.9506C7.08744 32.9506 7.08744 33.0367 7.08744 33.2077C7.08744 33.3787 7.08744 33.5497 7.08744 33.7207C7.08744 33.8917 7.08744 34.0456 7.08744 34.1824C7.08744 34.3192 7.08744 34.456 7.08744 34.5928C7.08744 34.7296 7.08744 34.8664 7.08744 35.0032C7.08744 35.14 7.08744 35.2768 7.08744 35.4136C7.08744 35.5504 7.08744 35.6872 7.08744 35.824C7.08744 35.9608 7.08744 36.0634 7.08744 36.1318C7.08744 36.2002 7.08744 36.2686 7.08744 36.337C7.08744 36.4054 7.08744 36.4738 7.08744 36.5422C7.08744 36.6106 7.08744 36.6619 7.08744 36.6961C7.08744 36.7303 7.08744 36.7816 7.08744 36.85C7.08744 36.9184 7.08744 36.9697 7.08744 37.0039C7.08744 37.0381 7.10257 37.0723 7.13282 37.1065C7.16308 37.1407 7.17821 37.1749 7.17821 37.2091C7.17821 37.2433 7.19333 37.2775 7.22359 37.3117C7.25384 37.3459 7.29922 37.3801 7.35973 37.4143C7.42023 37.4485 7.49587 37.4656 7.58663 37.4656C7.67739 37.4656 7.75302 37.4998 7.81353 37.5682C7.87404 37.6366 7.93455 37.6708 7.99505 37.6708C8.05556 37.6708 8.10094 37.6879 8.13119 37.7221C8.16145 37.7563 8.25221 37.7734 8.40348 37.7734C8.55475 37.7734 8.66064 37.7734 8.72114 37.7734C8.78165 37.7734 8.82703 37.7734 8.85729 37.7734C8.88754 37.7734 8.9783 37.7734 9.12957 37.7734C9.28084 37.7734 9.38673 37.7734 9.44724 37.7734C9.50774 37.7734 9.61363 37.7734 9.7649 37.7734C9.91617 37.7734 10.0372 37.7734 10.1279 37.7734C10.2187 37.7734 10.3095 37.7734 10.4002 37.7734C10.491 37.7734 10.5515 37.7734 10.5818 37.7734C10.612 37.7734 10.6423 37.7734 10.6725 37.7734C10.7028 37.7734 10.733 37.7563 10.7633 37.7221C10.7935 37.6879 10.8238 37.6708 10.854 37.6708C10.8843 37.6708 10.9145 37.6708 10.9448 37.6708C10.975 37.6708 10.9902 37.6537 10.9902 37.6195C10.9902 37.5853 11.0204 37.534 11.0809 37.4656C11.1414 37.3972 11.1717 37.3459 11.1717 37.3117C11.1717 37.2775 11.2171 37.2433 11.3078 37.2091C11.3986 37.1749 11.444 37.1236 11.444 37.0552C11.444 36.9868 11.4591 36.8671 11.4894 36.6961C11.5196 36.5251 11.5347 36.4225 11.5347 36.3883C11.5347 36.3541 11.5499 36.2857 11.5801 36.1831C11.6104 36.0805 11.6406 35.9608 11.6709 35.824C11.7011 35.6872 11.7163 35.5846 11.7163 35.5162C11.7163 35.4478 11.7163 35.3452 11.7163 35.2084C11.7163 35.0716 11.7163 34.9348 11.7163 34.798C11.7163 34.6612 11.7163 34.5415 11.7163 34.4389C11.7163 34.3363 11.7163 34.2337 11.7163 34.1311C11.7163 34.0285 11.7163 33.943 11.7163 33.8746C11.7163 33.8062 11.7163 33.7378 11.7163 33.6694C11.7163 33.601 11.7163 33.5326 11.7163 33.4642C11.7163 33.3958 11.7163 33.3445 11.7163 33.3103C11.7163 33.2761 11.7163 33.2419 11.7163 33.2077C11.7163 33.1735 11.7163 33.1393 11.7163 33.1051C11.7163 33.0709 11.7163 33.0367 11.7163 33.0025C11.7163 32.9683 11.7011 32.9512 11.6709 32.9512C11.6406 32.9512 11.6104 32.9512 11.5801 32.9512C11.5499 32.9512 11.4742 32.9341 11.3532 32.8999C11.2322 32.8657 11.1566 32.8486 11.1263 32.8486C11.0961 32.8486 11.0204 32.8315 10.8994 32.7973C10.7784 32.7631 10.6876 32.746 10.6271 32.746C10.5666 32.746 10.5061 32.746 10.4456 32.746C10.3851 32.746 10.3095 32.746 10.2187 32.746C10.1279 32.746 10.0674 32.746 10.0372 32.746C10.0069 32.746 9.97667 32.746 9.94642 32.746C9.91617 32.746 9.85566 32.746 9.7649 32.746C9.67414 32.746 9.58338 32.746 9.49262 32.746C9.40186 32.746 9.29596 32.746 9.17495 32.746C9.05393 32.746 8.9783 32.746 8.94805 32.746C8.91779 32.746 8.87241 32.746 8.81191 32.746C8.7514 32.746 8.66064 32.746 8.53962 32.746C8.41861 32.746 8.32785 32.746 8.26734 32.746C8.20683 32.746 8.16145 32.746 8.13119 32.746C8.10094 32.746 8.05556 32.746 7.99505 32.746C7.93455 32.746 7.87404 32.746 7.81353 32.746C7.75302 32.746 7.67739 32.746 7.58663 32.746C7.49587 32.746 7.42023 32.746 7.35973 32.746C7.29922 32.746 7.23871 32.746 7.17821 32.746C7.1177 32.746 7.07232 32.746 7.04206 32.746C7.01181 32.746 6.96643 32.746 6.90592 32.746H6.81461" stroke="black" stroke-width="0.958333" stroke-miterlimit="10" stroke-linecap="round" stroke-linejoin="round"/>
<path id="Vector_13" d="M7.08746 43.4157C7.08746 43.4157 7.08746 43.5189 7.08746 43.7241C7.08746 43.9293 7.08746 44.2029 7.08746 44.5449C7.08746 44.8869 7.08746 45.1605 7.08746 45.3657C7.08746 45.5709 7.08746 45.7761 7.08746 45.9813C7.08746 46.1865 7.08746 46.3575 7.08746 46.4943C7.08746 46.6311 7.08746 46.7166 7.08746 46.7508C7.08746 46.785 7.08746 46.8363 7.08746 46.9047C7.08746 46.9731 7.10259 47.0415 7.13284 47.1099C7.1631 47.1783 7.17822 47.2296 7.17822 47.2638C7.17822 47.298 7.19335 47.3322 7.2236 47.3664C7.25386 47.4006 7.28411 47.4348 7.31437 47.469C7.34462 47.5032 7.37487 47.5203 7.40513 47.5203C7.43538 47.5203 7.51101 47.5716 7.63203 47.6742C7.75304 47.7768 7.82868 47.8281 7.85893 47.8281C7.88918 47.8281 7.96482 47.8452 8.08583 47.8794C8.20685 47.9136 8.32787 47.9307 8.44888 47.9307C8.5699 47.9307 8.66066 47.9307 8.72116 47.9307C8.78167 47.9307 8.82705 47.9307 8.8573 47.9307C8.88756 47.9307 8.93294 47.9307 8.99345 47.9307C9.05395 47.9307 9.09933 47.9307 9.12959 47.9307C9.15984 47.9307 9.20522 47.9307 9.26573 47.9307C9.32624 47.9307 9.38675 47.9307 9.44726 47.9307C9.50776 47.9307 9.55314 47.9307 9.5834 47.9307C9.61365 47.9307 9.67416 47.9307 9.76492 47.9307C9.85568 47.9307 9.91619 47.9307 9.94644 47.9307C9.97669 47.9307 10.0069 47.9307 10.0372 47.9307C10.0675 47.9307 10.128 47.9307 10.2187 47.9307C10.3095 47.9307 10.3851 47.9307 10.4456 47.9307C10.5061 47.9307 10.5515 47.9307 10.5818 47.9307C10.612 47.9307 10.6423 47.9307 10.6725 47.9307C10.7028 47.9307 10.7482 47.9307 10.8087 47.9307C10.8692 47.9307 10.9146 47.9307 10.9448 47.9307C10.9751 47.9307 11.0053 47.9136 11.0356 47.8794C11.0658 47.8452 11.0961 47.7939 11.1263 47.7255C11.1566 47.6571 11.202 47.5374 11.2625 47.3664C11.323 47.1954 11.3532 47.0757 11.3532 47.0073C11.3532 46.9389 11.3532 46.8705 11.3532 46.8021C11.3532 46.7337 11.3532 46.614 11.3532 46.443C11.3532 46.272 11.3532 46.1523 11.3532 46.0839C11.3532 46.0155 11.3532 45.93 11.3532 45.8274C11.3532 45.7248 11.3532 45.6393 11.3532 45.5709C11.3532 45.5025 11.3532 45.4512 11.3532 45.417C11.3532 45.3828 11.3532 45.3486 11.3532 45.3144C11.3532 45.2802 11.3532 45.2118 11.3532 45.1092C11.3532 45.0066 11.3532 44.9211 11.3532 44.8527C11.3532 44.7843 11.3532 44.6988 11.3532 44.5962C11.3532 44.4936 11.3532 44.4252 11.3532 44.391C11.3532 44.3568 11.3532 44.3226 11.3532 44.2884C11.3532 44.2542 11.3532 44.22 11.3532 44.1858C11.3532 44.1516 11.3532 44.1174 11.3532 44.0832C11.3532 44.049 11.3381 43.9977 11.3079 43.9293C11.2776 43.8609 11.2322 43.7754 11.1717 43.6728C11.1112 43.5702 11.081 43.5018 11.081 43.4676C11.081 43.4334 11.0658 43.4164 11.0356 43.4164C11.0053 43.4164 10.9599 43.4164 10.8994 43.4164C10.8389 43.4164 10.7935 43.4164 10.7633 43.4164C10.733 43.4164 10.6877 43.4164 10.6272 43.4164C10.5666 43.4164 10.5213 43.4164 10.491 43.4164C10.4608 43.4164 10.4305 43.4164 10.4002 43.4164C10.37 43.4164 10.3095 43.4164 10.2187 43.4164C10.128 43.4164 10.0675 43.4164 10.0372 43.4164C10.0069 43.4164 9.99182 43.3992 9.99182 43.365C9.99182 43.3308 9.94644 43.3137 9.85568 43.3137C9.76492 43.3137 9.68928 43.3137 9.62878 43.3137C9.56827 43.3137 9.52289 43.3137 9.49264 43.3137C9.46238 43.3137 9.40187 43.3137 9.31111 43.3137C9.22035 43.3137 9.15984 43.3137 9.12959 43.3137C9.09933 43.3137 9.06908 43.3137 9.03883 43.3137C9.00857 43.3137 8.94807 43.3137 8.8573 43.3137C8.76654 43.3137 8.70604 43.3137 8.67578 43.3137C8.64553 43.3137 8.61528 43.3137 8.58502 43.3137C8.55477 43.3137 8.50939 43.3137 8.44888 43.3137C8.38837 43.3137 8.29761 43.3137 8.17659 43.3137C8.05558 43.3137 7.96482 43.3137 7.90431 43.3137C7.8438 43.3137 7.75304 43.3137 7.63203 43.3137C7.51101 43.3137 7.42025 43.3137 7.35975 43.3137H7.26843" stroke="black" stroke-width="0.958333" stroke-miterlimit="10" stroke-linecap="round" stroke-linejoin="round"/>
<path id="Vector_14" d="M15.8 12.5339C15.8 12.5339 15.861 12.5339 15.982 12.5339C16.103 12.5339 16.33 12.5339 16.6627 12.5339C16.9955 12.5339 17.2376 12.5339 17.3888 12.5339C17.5401 12.5339 17.646 12.5339 17.7065 12.5339C17.767 12.5339 17.8729 12.5339 18.0242 12.5339C18.1754 12.5339 18.3267 12.5339 18.478 12.5339C18.6292 12.5339 18.7654 12.5339 18.8864 12.5339C19.0074 12.5339 19.1889 12.5339 19.431 12.5339C19.673 12.5339 19.915 12.551 20.157 12.5852C20.3991 12.6194 20.5806 12.6365 20.7016 12.6365C20.8226 12.6365 20.9436 12.6365 21.0647 12.6365C21.1857 12.6365 21.2613 12.6365 21.2916 12.6365C21.3218 12.6365 21.3672 12.6365 21.4277 12.6365C21.4882 12.6365 21.5941 12.6365 21.7454 12.6365C21.8966 12.6365 22.0328 12.6365 22.1538 12.6365C22.2748 12.6365 22.3958 12.6365 22.5168 12.6365C22.6379 12.6365 22.7589 12.6365 22.8799 12.6365C23.0009 12.6365 23.1068 12.6365 23.1975 12.6365C23.2883 12.6365 23.3639 12.6365 23.4244 12.6365C23.485 12.6365 23.5606 12.6365 23.6514 12.6365C23.7421 12.6365 23.8329 12.6365 23.9236 12.6365C24.0144 12.6365 24.09 12.6365 24.1505 12.6365C24.211 12.6365 24.2716 12.6365 24.3321 12.6365C24.3926 12.6365 24.4379 12.6365 24.4682 12.6365C24.4985 12.6365 24.5741 12.6365 24.6951 12.6365C24.8161 12.6365 24.922 12.6365 25.0128 12.6365C25.1035 12.6365 25.1943 12.6365 25.2851 12.6365C25.3758 12.6365 25.4363 12.6365 25.4666 12.6365C25.4968 12.6365 25.5876 12.6365 25.7389 12.6365C25.8901 12.6365 26.0414 12.6194 26.1927 12.5852C26.3439 12.551 26.4347 12.5339 26.465 12.5339C26.4952 12.5339 26.5255 12.5339 26.5557 12.5339C26.586 12.5339 26.6162 12.5339 26.6465 12.5339C26.6767 12.5339 26.7221 12.5168 26.7826 12.4826C26.8431 12.4484 26.9036 12.4142 26.9641 12.38L27.0554 12.3281" stroke="black" stroke-width="0.958333" stroke-miterlimit="10" stroke-linecap="round" stroke-linejoin="round"/>
<path id="Vector_15" d="M37.8561 8.22406C37.8561 8.22406 37.7496 8.27598 37.5378 8.37858C37.3261 8.48118 37.1597 8.54958 37.0387 8.58378C36.9176 8.61798 36.7966 8.66928 36.6756 8.73768C36.5546 8.80608 36.4638 8.84028 36.4033 8.84028C36.3428 8.84028 36.2067 8.84028 35.9949 8.84028C35.7831 8.84028 35.647 8.84028 35.5865 8.84028C35.526 8.84028 35.4049 8.84028 35.2234 8.84028C35.0419 8.84028 34.8301 8.80608 34.5881 8.73768C34.3461 8.66928 34.1343 8.61798 33.9528 8.58378C33.7713 8.54958 33.6654 8.53248 33.6351 8.53248C33.6048 8.53248 33.5141 8.48118 33.3628 8.37858C33.2115 8.27598 33.0149 8.17338 32.7729 8.07078C32.5308 7.96818 32.3191 7.83138 32.1375 7.66038C31.956 7.48938 31.8501 7.38679 31.8199 7.35259C31.7896 7.31839 31.7594 7.30129 31.7291 7.30129C31.6989 7.30129 31.5778 7.13028 31.3661 6.78829C31.1543 6.44629 31.0484 6.24109 31.0484 6.17269C31.0484 6.10429 31.0182 6.05299 30.9576 6.01879C30.8971 5.98459 30.8366 5.71099 30.7761 5.19799C30.7156 4.685 30.6854 4.3943 30.6854 4.3259C30.6854 4.2575 30.6854 4.2062 30.6854 4.172C30.6854 4.1378 30.6854 3.9839 30.6854 3.7103C30.6854 3.4367 30.6854 3.28281 30.6854 3.24861C30.6854 3.21441 30.6854 3.1802 30.6854 3.146C30.6854 3.1118 30.6854 2.975 30.6854 2.7356C30.6854 2.49621 30.7005 2.29101 30.7307 2.12001C30.761 1.94901 30.7761 1.84641 30.7761 1.81221C30.7761 1.77801 30.8064 1.74381 30.8669 1.70961C30.9274 1.67541 30.9728 1.60701 31.003 1.50441C31.0333 1.40181 31.0635 1.31631 31.0938 1.24791C31.124 1.17951 31.1543 1.11111 31.1845 1.04271C31.2148 0.974315 31.2451 0.923013 31.2753 0.888814L31.3212 0.836891" stroke="black" stroke-width="0.958333" stroke-miterlimit="10" stroke-linecap="round" stroke-linejoin="round"/>
<path id="Vector_16" d="M15.8907 18.5872C15.8907 18.5872 16.0274 18.5872 16.2997 18.5872C16.572 18.5872 16.7687 18.5872 16.8897 18.5872C17.0107 18.5872 17.1014 18.5872 17.162 18.5872C17.2225 18.5872 17.4645 18.5872 17.888 18.5872C18.3116 18.5872 18.6293 18.5872 18.841 18.5872C19.0528 18.5872 19.2797 18.5872 19.5217 18.5872C19.7638 18.5872 20.0814 18.6215 20.4747 18.6898C20.868 18.7582 21.2008 18.7924 21.4731 18.7924C21.7454 18.7924 21.9572 18.7924 22.1084 18.7924C22.2597 18.7924 22.4564 18.7924 22.6984 18.7924C22.9404 18.7924 23.1219 18.7924 23.243 18.7924C23.364 18.7924 23.5152 18.7924 23.6968 18.7924C23.8783 18.7924 24.0749 18.7924 24.2867 18.7924C24.4985 18.7924 24.6498 18.7924 24.7405 18.7924C24.8313 18.7924 24.9372 18.7924 25.0582 18.7924C25.1792 18.7924 25.3153 18.7924 25.4666 18.7924C25.6179 18.7924 25.7389 18.7924 25.8297 18.7924C25.9204 18.7924 26.0263 18.7924 26.1473 18.7924C26.2683 18.7924 26.3893 18.7924 26.5104 18.7924C26.6314 18.7924 26.7675 18.7924 26.9188 18.7924C27.0701 18.7924 27.2062 18.7924 27.3272 18.7924C27.4482 18.7924 27.5541 18.7924 27.6449 18.7924C27.7356 18.7924 27.8718 18.7924 28.0533 18.7924C28.2348 18.7924 28.4012 18.7924 28.5525 18.7924C28.7038 18.7924 28.8399 18.7753 28.9609 18.7411C29.0819 18.7069 29.2181 18.6727 29.3693 18.6385C29.5206 18.6043 29.6568 18.5872 29.7778 18.5872C29.8988 18.5872 30.0047 18.5872 30.0954 18.5872C30.1862 18.5872 30.2467 18.5872 30.277 18.5872C30.3072 18.5872 30.3677 18.5701 30.4585 18.5359C30.5492 18.5017 30.6702 18.4675 30.8215 18.4333C30.9728 18.3991 31.0787 18.382 31.1392 18.382C31.1997 18.382 31.2602 18.3649 31.3207 18.3307C31.3812 18.2965 31.4569 18.2452 31.5476 18.1768C31.6384 18.1084 31.7291 18.0572 31.8199 18.023C31.9107 17.9888 31.9863 17.9716 32.0468 17.9716C32.1073 17.9716 32.1678 17.9716 32.2283 17.9716H32.3196" stroke="black" stroke-width="0.958333" stroke-miterlimit="10" stroke-linecap="round" stroke-linejoin="round"/>
<path id="Vector_17" d="M15.8 23.4094C15.8 23.4094 16.0425 23.4094 16.5266 23.4094C17.0107 23.4094 17.3737 23.4094 17.6157 23.4094C17.8578 23.4094 18.009 23.4094 18.0695 23.4094C18.13 23.4094 18.2662 23.4094 18.478 23.4094C18.6897 23.4094 18.841 23.4094 18.9318 23.4094C19.0225 23.4094 19.1435 23.4094 19.2948 23.4094C19.4461 23.4094 19.5974 23.4094 19.7486 23.4094C19.8999 23.4094 20.0512 23.4094 20.2024 23.4094C20.3537 23.4094 20.5201 23.4094 20.7016 23.4094C20.8831 23.4094 21.0798 23.4094 21.2916 23.4094C21.5033 23.4094 21.6849 23.4094 21.8361 23.4094C21.9874 23.4094 22.1235 23.4265 22.2446 23.4607C22.3656 23.4949 22.5773 23.512 22.8799 23.512C23.1824 23.512 23.4093 23.5291 23.5606 23.5633C23.7119 23.5975 23.8631 23.6146 24.0144 23.6146C24.1657 23.6146 24.3018 23.6146 24.4228 23.6146C24.5438 23.6146 24.68 23.6146 24.8312 23.6146C24.9825 23.6146 25.1035 23.6146 25.1943 23.6146C25.2851 23.6146 25.4061 23.6146 25.5573 23.6146C25.7086 23.6146 25.8145 23.6146 25.875 23.6146C25.9355 23.6146 25.9809 23.6146 26.0111 23.6146C26.0414 23.6146 26.0868 23.6146 26.1473 23.6146C26.2078 23.6146 26.2532 23.6146 26.2834 23.6146C26.3137 23.6146 26.3591 23.6146 26.4196 23.6146H26.5109" stroke="black" stroke-width="0.958333" stroke-miterlimit="10" stroke-linecap="round" stroke-linejoin="round"/>
<path id="Vector_18" d="M16.3445 28.3342C16.3445 28.3342 16.3905 28.3342 16.4812 28.3342C16.572 28.3342 16.7384 28.3342 16.9804 28.3342C17.2225 28.3342 17.4191 28.3513 17.5704 28.3855C17.7216 28.4197 17.9183 28.4368 18.1603 28.4368C18.4024 28.4368 18.6141 28.4368 18.7956 28.4368C18.9772 28.4368 19.1284 28.4368 19.2495 28.4368C19.3705 28.4368 19.4915 28.4368 19.6125 28.4368C19.7335 28.4368 19.915 28.4368 20.1571 28.4368C20.3991 28.4368 20.5655 28.4368 20.6563 28.4368C20.747 28.4368 20.868 28.4197 21.0193 28.3855C21.1706 28.3513 21.337 28.3342 21.5185 28.3342C21.7 28.3342 21.8664 28.3342 22.0177 28.3342C22.1689 28.3342 22.3807 28.3171 22.653 28.2829C22.9253 28.2487 23.0917 28.2316 23.1522 28.2316C23.2127 28.2316 23.3337 28.2316 23.5152 28.2316C23.6968 28.2316 23.9085 28.2145 24.1506 28.1803C24.3926 28.1461 24.5741 28.129 24.6951 28.129C24.8161 28.129 24.9977 28.0948 25.2397 28.0264C25.4817 27.958 25.7238 27.8896 25.9658 27.8212C26.2078 27.7528 26.4498 27.6844 26.6919 27.616C26.9339 27.5476 27.1154 27.5134 27.2364 27.5134C27.3575 27.5134 27.5239 27.4963 27.7356 27.4621C27.9474 27.4279 28.0987 27.4108 28.1894 27.4108C28.2802 27.4108 28.371 27.3937 28.4617 27.3595C28.5525 27.3253 28.613 27.3082 28.6432 27.3082C28.6735 27.3082 28.7794 27.3082 28.9609 27.3082C29.1424 27.3082 29.2786 27.3082 29.3693 27.3082C29.4601 27.3082 29.5357 27.3082 29.5962 27.3082C29.6567 27.3082 29.7778 27.3082 29.9593 27.3082C30.1408 27.3082 30.2618 27.3253 30.3223 27.3595C30.3828 27.3937 30.4433 27.4108 30.5038 27.4108C30.5644 27.4108 30.6551 27.4108 30.7761 27.4108C30.8971 27.4108 30.9728 27.4108 31.003 27.4108C31.0333 27.4108 31.1089 27.4279 31.2299 27.4621C31.3509 27.4963 31.4417 27.5134 31.5022 27.5134C31.5627 27.5134 31.6232 27.5134 31.6837 27.5134C31.7443 27.5134 31.7896 27.5134 31.8199 27.5134C31.8501 27.5134 31.8804 27.5134 31.9106 27.5134C31.9409 27.5134 31.9863 27.5134 32.0468 27.5134C32.1073 27.5134 32.1829 27.5305 32.2737 27.5647L32.4104 27.6166" stroke="black" stroke-width="0.958333" stroke-miterlimit="10" stroke-linecap="round" stroke-linejoin="round"/>
<path id="Vector_19" d="M15.7092 33.1564C15.7092 33.1564 15.9064 33.1564 16.2997 33.1564C16.693 33.1564 17.0409 33.1564 17.3435 33.1564C17.646 33.1564 17.888 33.1564 18.0696 33.1564C18.2511 33.1564 18.5385 33.1564 18.9318 33.1564C19.3251 33.1564 19.5671 33.1564 19.6579 33.1564C19.7487 33.1564 19.9302 33.1564 20.2025 33.1564C20.4747 33.1564 20.6563 33.1564 20.747 33.1564C20.8378 33.1564 20.9285 33.1564 21.0193 33.1564C21.1101 33.1564 21.2613 33.1564 21.4731 33.1564C21.6849 33.1564 21.8815 33.1564 22.0631 33.1564C22.2446 33.1564 22.3807 33.1564 22.4715 33.1564C22.5622 33.1564 22.6984 33.1564 22.8799 33.1564C23.0614 33.1564 23.2581 33.1564 23.4699 33.1564C23.6816 33.1564 23.8329 33.1564 23.9237 33.1564C24.0144 33.1564 24.0901 33.1564 24.1506 33.1564C24.2111 33.1564 24.3018 33.1564 24.4229 33.1564C24.5439 33.1564 24.6346 33.1564 24.6951 33.1564C24.7556 33.1564 24.801 33.1564 24.8313 33.1564C24.8615 33.1564 24.9372 33.1564 25.0582 33.1564C25.1792 33.1564 25.2548 33.1564 25.2851 33.1564C25.3153 33.1564 25.391 33.1564 25.512 33.1564C25.633 33.1564 25.7086 33.1564 25.7389 33.1564C25.7691 33.1564 25.7994 33.1564 25.8297 33.1564C25.8599 33.1564 25.8902 33.1564 25.9204 33.1564C25.9507 33.1564 25.996 33.1564 26.0566 33.1564C26.1171 33.1564 26.1927 33.1564 26.2835 33.1564H26.4202" stroke="black" stroke-width="0.958333" stroke-miterlimit="10" stroke-linecap="round" stroke-linejoin="round"/>
<path id="Vector_20" d="M15.437 38.1838C15.437 38.1838 15.4678 38.1838 15.5283 38.1838C15.5888 38.1838 15.8913 38.1838 16.4359 38.1838C16.9804 38.1838 17.4342 38.1838 17.7973 38.1838C18.1603 38.1838 18.5234 38.1666 18.8864 38.1324C19.2495 38.0982 19.552 38.0812 19.794 38.0812C20.0361 38.0812 20.1873 38.0812 20.2478 38.0812C20.3084 38.0812 20.4294 38.0812 20.6109 38.0812C20.7924 38.0812 21.0042 38.0812 21.2462 38.0812C21.4882 38.0812 21.6849 38.0812 21.8362 38.0812C21.9874 38.0812 22.2295 38.064 22.5623 38.0298C22.895 37.9956 23.1976 37.9785 23.4699 37.9785C23.7421 37.9785 23.9842 37.9785 24.196 37.9785C24.4077 37.9785 24.68 37.9785 25.0128 37.9785C25.3456 37.9785 25.633 37.9785 25.875 37.9785C26.1171 37.9785 26.344 37.9785 26.5557 37.9785C26.7675 37.9785 26.9642 37.9785 27.1457 37.9785C27.3272 37.9785 27.4785 37.9785 27.5995 37.9785C27.7205 37.9785 27.8113 37.9785 27.8718 37.9785C27.9323 37.9785 28.0231 37.9785 28.1441 37.9785C28.2651 37.9785 28.3558 37.9785 28.4164 37.9785C28.4769 37.9785 28.5525 37.9785 28.6433 37.9785C28.734 37.9785 28.7945 37.9785 28.8248 37.9785C28.855 37.9785 28.8853 37.9785 28.9155 37.9785C28.9458 37.9785 28.976 37.9785 29.0063 37.9785C29.0366 37.9785 29.0668 37.9785 29.0971 37.9785C29.1273 37.9785 29.1727 37.9785 29.2332 37.9785H29.3245" stroke="black" stroke-width="0.958333" stroke-miterlimit="10" stroke-linecap="round" stroke-linejoin="round"/>
<path id="Vector_21" d="M16.163 43.0059C16.163 43.0059 16.3148 43.0059 16.6174 43.0059C16.9199 43.0059 17.2073 43.0059 17.4796 43.0059C17.7519 43.0059 17.9788 43.0059 18.1603 43.0059C18.3418 43.0059 18.6595 43.0059 19.1133 43.0059C19.5671 43.0059 19.915 43.0059 20.1571 43.0059C20.3991 43.0059 20.7016 43.0059 21.0647 43.0059C21.4277 43.0059 21.7303 43.0401 21.9723 43.1085C22.2143 43.1769 22.4412 43.2111 22.653 43.2111C22.8648 43.2111 23.0463 43.2111 23.1976 43.2111C23.3488 43.2111 23.5757 43.2111 23.8783 43.2111C24.1808 43.2111 24.3926 43.2111 24.5136 43.2111C24.6346 43.2111 24.7405 43.2111 24.8313 43.2111C24.922 43.2111 25.0582 43.2111 25.2397 43.2111C25.4212 43.2111 25.5271 43.2111 25.5574 43.2111C25.5876 43.2111 25.6179 43.2111 25.6481 43.2111C25.6784 43.2111 25.7389 43.2111 25.8296 43.2111C25.9204 43.2111 25.9809 43.2111 26.0112 43.2111C26.0414 43.2111 26.0868 43.2111 26.1473 43.2111C26.2078 43.2111 26.2683 43.2111 26.3288 43.2111H26.4201" stroke="black" stroke-width="0.958333" stroke-miterlimit="10" stroke-linecap="round" stroke-linejoin="round"/>
<path id="Vector_22" d="M15.9815 49.4691C15.9815 49.4691 16.103 49.4697 16.3451 49.4697C16.5871 49.4697 16.9955 49.4868 17.5703 49.521C18.1452 49.5552 18.599 49.5723 18.9318 49.5723C19.2646 49.5723 19.7032 49.5723 20.2478 49.5723C20.7924 49.5723 21.2159 49.5723 21.5185 49.5723C21.821 49.5723 22.1387 49.5723 22.4715 49.5723C22.8042 49.5723 23.0917 49.5723 23.3337 49.5723C23.5757 49.5723 23.7724 49.5723 23.9236 49.5723C24.0749 49.5723 24.2716 49.5723 24.5136 49.5723C24.7556 49.5723 24.9371 49.5723 25.0581 49.5723C25.1792 49.5723 25.2699 49.5723 25.3304 49.5723C25.3909 49.5723 25.4968 49.5723 25.6481 49.5723C25.7994 49.5723 25.9053 49.5723 25.9658 49.5723C26.0263 49.5723 26.1019 49.5723 26.1927 49.5723C26.2834 49.5723 26.3591 49.5723 26.4196 49.5723C26.4801 49.5723 26.5406 49.5723 26.6011 49.5723C26.6616 49.5723 26.7221 49.5723 26.7826 49.5723C26.8431 49.5723 26.9036 49.5723 26.9641 49.5723C27.0246 49.5723 27.07 49.5723 27.1003 49.5723C27.1305 49.5723 27.1608 49.5723 27.191 49.5723C27.2213 49.5723 27.2818 49.5723 27.3726 49.5723H27.5093" stroke="black" stroke-width="0.958333" stroke-miterlimit="10" stroke-linecap="round" stroke-linejoin="round"/>
<path id="Vector_23" d="M31.1808 48.5679L32.3003 47.7018L31.001 47.0477L29.7016 46.3936L29.8815 47.9138L30.0613 49.434L31.1808 48.5679Z" fill="black"/>
</g>
</svg>
